/* XPM */
static char * add3_xpm[] = {
"100 100 2 1",
" 	c None",
".	c #3D3D3D",
"....................................................................................................",
"....................................................................................................",
" ...................................................................................................",
"  ..................................................................................................",
"  ................................................................................................. ",
"   ................................................................................................ ",
"   ...............................................................................................  ",
"    ..............................................................................................  ",
"    .............................................................................................   ",
"    .............................................................................................   ",
"     ...........................................................................................    ",
"      ..........................................................................................    ",
"      .........................................................................................     ",
"      .........................................................................................     ",
"       .......................................................................................      ",
"        ......................................................................................      ",
"        .....................................................................................       ",
"        .....................................................................................       ",
"         ...................................................................................        ",
"          ..................................................................................        ",
"          .................................................................................         ",
"           ................................................................................         ",
"           ...............................................................................          ",
"            ..............................................................................          ",
"            .............................................................................           ",
"             ............................................................................           ",
"             ...........................................................................            ",
"             ...........................................................................            ",
"              .........................................................................             ",
"               ........................................................................             ",
"               .......................................................................              ",
"               .......................................................................              ",
"                .....................................................................               ",
"                 ....................................................................               ",
"                 ...................................................................                ",
"                 ...................................................................                ",
"                  .................................................................                 ",
"                                                                                                    ",
"                                                                                                    ",
"                                                                                                    ",
"                                                                                                    ",
"                                                                                                    ",
"                                                                                                    ",
"                                                                                                    ",
"                                                                                                    ",
"                                                                                                    ",
"                                                                                                    ",
"                                                                                                    ",
"                                                                                                    ",
"                                                                                                    ",
"                         ...................................................                        ",
"                         ..................................................                         ",
"                          .................................................                         ",
"                          ................................................                          ",
"                           ...............................................                          ",
"                           ..............................................                           ",
"                            .............................................                           ",
"                            ............................................                            ",
"                             ...........................................                            ",
"                             ..........................................                             ",
"                              .........................................                             ",
"                              ........................................                              ",
"                               .......................................                              ",
"                               ......................................                               ",
"                                .....................................                               ",
"                                ....................................                                ",
"                                 ...................................                                ",
"                                 ..................................                                 ",
"                                  .................................                                 ",
"                                  ................................                                  ",
"                                   ...............................                                  ",
"                                   ..............................                                   ",
"                                    .............................                                   ",
"                                    ............................                                    ",
"                                     ...........................                                    ",
"                                     ..........................                                     ",
"                                      .........................                                     ",
"                                      ........................                                      ",
"                                       .......................                                      ",
"                                       ......................                                       ",
"                                        .....................                                       ",
"                                        ....................                                        ",
"                                         ...................                                        ",
"                                         ..................                                         ",
"                                          .................                                         ",
"                                          ................                                          ",
"                                           ...............                                          ",
"                                           ..............                                           ",
"                                            .............                                           ",
"                                            ............                                            ",
"         ..................................................................................         ",
"         ..................................................................................         ",
"         ..................................................................................         ",
"         ..................................................................................         ",
"         ..................................................................................         ",
"         ..................................................................................         ",
"         ..................................................................................         ",
"         ..................................................................................         ",
"         ..................................................................................         ",
"         ..................................................................................         "};
