/* XPM */
static char * control_k_xpm[] = {
"16 16 30 1",
" 	c None",
".	c #000000",
"+	c #6F6F6F",
"@	c #F5F5F5",
"#	c #FFFFFF",
"$	c #3B3B3B",
"%	c #AEAEAE",
"&	c #191919",
"*	c #5D5D5D",
"=	c #181818",
"-	c #B5B5B5",
";	c #BBBBBB",
">	c #6B6B6B",
",	c #4E4E4E",
"'	c #383838",
")	c #424242",
"!	c #E5E5E5",
"~	c #A3A3A3",
"{	c #262626",
"]	c #2F2F2F",
"^	c #838383",
"/	c #404040",
"(	c #D6D6D6",
"_	c #E2E2E2",
":	c #2A2A2A",
"<	c #FDFDFD",
"[	c #141414",
"}	c #B7B7B7",
"|	c #F3F3F3",
"1	c #5B5B5B",
"                ",
" .............. ",
" .+@########@$. ",
" .@%&......&*.. ",
" .#=-######;... ",
" .#.##>,####... ",
" .#.#@')!###... ",
" .#.#~{]^###... ",
" .#.#/(_:<##... ",
" .#.########... ",
" .#.########... ",
" .#[-######}... ",
" .|1........... ",
" .'............ ",
" .............. ",
"                "};
