/* XPM */
static char * control_p_xpm[] = {
"16 16 47 1",
" 	c None",
".	c #090909",
"+	c #1A1A1A",
"@	c #0C0C0C",
"#	c #010101",
"$	c #0A0A0A",
"%	c #040404",
"&	c #000000",
"*	c #131313",
"=	c #2F2F2F",
"-	c #A6A6A6",
";	c #E4E4E4",
">	c #FBFBFB",
",	c #D3D3D3",
"'	c #5C5C5C",
")	c #080808",
"!	c #0D0D0D",
"~	c #707070",
"{	c #FDFDFD",
"]	c #A4A4A4",
"^	c #2C2C2C",
"/	c #BCBCBC",
"(	c #FFFFFF",
"_	c #969696",
":	c #050505",
"<	c #3F3F3F",
"[	c #181818",
"}	c #CFCFCF",
"|	c #B2B2B2",
"1	c #4A4A4A",
"2	c #0F0F0F",
"3	c #BDBDBD",
"4	c #C3C3C3",
"5	c #C1C1C1",
"6	c #F3F3F3",
"7	c #B6B6B6",
"8	c #191919",
"9	c #F1F1F1",
"0	c #BFBFBF",
"a	c #414141",
"b	c #454545",
"c	c #808080",
"d	c #848484",
"e	c #F2F2F2",
"f	c #BEBEBE",
"g	c #111111",
"h	c #060606",
"                ",
"                ",
"     .+@#$%     ",
"   &*=-;>,')&   ",
"   !~{]$^/(_.   ",
"  :<(([}|+((1%  ",
"  23((+44+((52  ",
"  :6((7887((6:  ",
"  :9((((((((6:  ",
"  20((((((((02  ",
"  :a((((((((b:  ",
"   !c((((((d!   ",
"   &!a/eefb!&   ",
"     :ghhg:     ",
"                ",
"                "};
