/* XPM */
static char * control_n_xpm[] = {
"16 16 33 1",
" 	c None",
".	c #030303",
"+	c #040404",
"@	c #101010",
"#	c #0F0F0F",
"$	c #000000",
"%	c #F5F5F5",
"&	c #CFCFCF",
"*	c #868686",
"=	c #0C0C0C",
"-	c #FFFFFF",
";	c #EFEFEF",
">	c #4B4B4B",
",	c #0D0D0D",
"'	c #1A1A1A",
")	c #555555",
"!	c #949494",
"~	c #090909",
"{	c #484848",
"]	c #121212",
"^	c #060606",
"/	c #0A0A0A",
"(	c #080808",
"_	c #8D8D8D",
":	c #EEEEEE",
"<	c #9C9C9C",
"[	c #010101",
"}	c #FBFBFB",
"|	c #DDDDDD",
"1	c #191919",
"2	c #7C7C7C",
"3	c #888888",
"4	c #818181",
"     .+@#$      ",
"     $%&*@=     ",
"     $---;>,$   ",
"     $--')&!~+  ",
"     $--${]=,$  ",
"     $--$  $    ",
"     $--$       ",
"     $--$       ",
"  $#^/--$       ",
" $(_:---$       ",
" ~<-----$       ",
" [}-----$       ",
" ,|----;+       ",
" 12----*]       ",
" $~3::4($       ",
"  $]^^#$        "};
