/* XPM */
static char * control_c_xpm[] = {
"16 16 9 1",
" 	c None",
".	c #000000",
"+	c #D2D2D2",
"@	c #FFFFFF",
"#	c #D0D0D0",
"$	c #383838",
"%	c #A9A9A9",
"&	c #CECECE",
"*	c #C9C9C9",
"       .        ",
"     .....      ",
"       .        ",
"   .........    ",
"   .+@@@@@#.    ",
"   .@@$.$@@.    ",
"   .@@@@@@@.    ",
"   .@@%.%@@.    ",
"   .@@@@@@@.    ",
"   .&@@@@@*.    ",
"   .........    ",
"       .        ",
"     .....      ",
"       .        ",
"     .....      ",
"       .        "};
