/* XPM */
static char * crossout_xpm[] = {
"40 40 13 1",
" 	c None",
".	c #3E3D1D",
"+	c #3D3D30",
"@	c #3D3D2B",
"#	c #3D3D34",
"$	c #3D3D37",
"%	c #3D3D33",
"&	c #3D3D39",
"*	c #3D3D35",
"=	c #3D3D36",
"-	c #3D3D3A",
";	c #3D3D38",
">	c #3D3D3B",
"                                        ",
"                                        ",
"                                        ",
"                                        ",
"                                        ",
"                                        ",
"                                        ",
"                                        ",
"        ..                    ..        ",
"        .+@                  @+.        ",
"         @#@                @#@         ",
"          @$%              %$@          ",
"           %&*            *&%           ",
"            *&=          =&*            ",
"             =-$        $-=             ",
"              $-;      ;-$              ",
"               ;>&    &>;               ",
"                &>&  &>&                ",
"                 &>&&>&                 ",
"                  &>>&                  ",
"                  &>>&                  ",
"                 &>&&>&                 ",
"                &>&  &>&                ",
"               ;>&    &>;               ",
"              $-;      ;-$              ",
"             =-$        $-=             ",
"            *&=          =&*            ",
"           %&*            *&%           ",
"          @$%              %$@          ",
"         @#@                @#@         ",
"        .+@                  @+.        ",
"        ..                    ..        ",
"                                        ",
"                                        ",
"                                        ",
"                                        ",
"                                        ",
"                                        ",
"                                        ",
"                                        "};
