/* XPM */
static char * del_xpm[] = {
"16 15 2 1",
" 	c None",
".	c #3E3E3E",
"                ",
" ...        ... ",
" ....      .... ",
"  ....    ....  ",
"   ....  ....   ",
"    ........    ",
"     ......     ",
"      ....      ",
"     ......     ",
"    ........    ",
"   ....  ....   ",
"  ....    ....  ",
" ....      .... ",
" ...        ... ",
"                "};
