/* XPM */
static char * im_xpm[] = {
"27 16 148 2",
"  	c None",
". 	c #4D76CC",
"+ 	c #456AB8",
"@ 	c #36528F",
"# 	c #365390",
"$ 	c #273C68",
"% 	c #17243F",
"& 	c #3E333B",
"* 	c #945942",
"= 	c #9C665A",
"- 	c #5E5979",
"; 	c #10182B",
"> 	c #382B2B",
", 	c #895231",
"' 	c #BC6A38",
") 	c #D67842",
"! 	c #CF7340",
"~ 	c #714D45",
"{ 	c #382D2B",
"] 	c #895631",
"^ 	c #BC6E37",
"/ 	c #D47A35",
"( 	c #E4802F",
"_ 	c #E37D31",
": 	c #C97139",
"< 	c #684639",
"[ 	c #1F3053",
"} 	c #3D5EA4",
"| 	c #382F2B",
"1 	c #895A31",
"2 	c #BB7337",
"3 	c #D48036",
"4 	c #E48A2E",
"5 	c #EB8D23",
"6 	c #ED8B1E",
"7 	c #E7842B",
"8 	c #CA7439",
"9 	c #63402D",
"0 	c #2E477C",
"a 	c #3B322C",
"b 	c #8A5E31",
"c 	c #BB7737",
"d 	c #D48635",
"e 	c #E4932D",
"f 	c #EA9B23",
"g 	c #EE9D1D",
"h 	c #EE9A1D",
"i 	c #ED951D",
"j 	c #E78A2A",
"k 	c #CA7738",
"l 	c #63422D",
"m 	c #AA7036",
"n 	c #E49C2E",
"o 	c #EEAE1C",
"p 	c #EEAA1D",
"q 	c #EDA71D",
"r 	c #EEA31D",
"s 	c #ED9E1D",
"t 	c #E6912A",
"u 	c #CE793E",
"v 	c #67462E",
"w 	c #A66F34",
"x 	c #E7A228",
"y 	c #EEAD1C",
"z 	c #EEA81D",
"A 	c #EEA51D",
"B 	c #EC9F1E",
"C 	c #E5902D",
"D 	c #D47D3F",
"E 	c #B56E36",
"F 	c #6F4A2F",
"G 	c #1B1D2A",
"H 	c #121C31",
"I 	c #213359",
"J 	c #334E88",
"K 	c #4469B5",
"L 	c #AA6F35",
"M 	c #E8A127",
"N 	c #EEA71D",
"O 	c #EDA31C",
"P 	c #EE9F1C",
"Q 	c #EE9C1D",
"R 	c #ED981D",
"S 	c #E88E27",
"T 	c #DE8333",
"U 	c #C57438",
"V 	c #A06643",
"W 	c #605B72",
"X 	c #385696",
"Y 	c #152038",
"Z 	c #2C292A",
"` 	c #C67C3B",
" .	c #E7A128",
"..	c #EEAD1D",
"+.	c #EEA91C",
"@.	c #EEA11D",
"#.	c #EE9E1D",
"$.	c #ED9A1D",
"%.	c #E89027",
"&.	c #DD8433",
"*.	c #C57538",
"=.	c #9F6643",
"-.	c #476EBE",
";.	c #243760",
">.	c #7E5B30",
",.	c #D89035",
"'.	c #ECB21E",
").	c #EEB31C",
"!.	c #EEAF1C",
"~.	c #EDAB1D",
"{.	c #EBA221",
"].	c #E4942D",
"^.	c #D38236",
"/.	c #B57036",
"(.	c #6F4B2E",
"_.	c #2C2B2A",
":.	c #C18138",
"<.	c #E6AC28",
"[.	c #EEBB1B",
"}.	c #ECB71C",
"|.	c #E7A726",
"1.	c #DD9232",
"2.	c #C47D37",
"3.	c #966333",
"4.	c #3E332C",
"5.	c #182541",
"6.	c #29406F",
"7.	c #3B5B9D",
"8.	c #4A72C5",
"9.	c #7F6032",
"0.	c #D79635",
"a.	c #EAB922",
"b.	c #E5A62C",
"c.	c #D38D36",
"d.	c #B57836",
"e.	c #6F522E",
"f.	c #1B1F2A",
"g.	c #2F487C",
"h.	c #3D4759",
"i.	c #C6833C",
"j.	c #DA8C3E",
"k.	c #C48637",
"l.	c #966B32",
"m.	c #3E372B",
"n.	c #6C6862",
"o.	c #AD8043",
"p.	c #725B31",
"q.	c #1D2430",
". . . . . . . . . . . . . . . . . . . . . + @ @ @ # + ",
". . . . . . . . . . . . . . . . . + @ $ % % & * = - + ",
". . . . . . . . . . . . . + @ $ % ; > , ' ) ! ~ @ # + ",
". . . . . . . . . + @ $ % ; { ] ^ / ( _ : < % [ } . . ",
". . . . . + @ $ % ; | 1 2 3 4 5 6 7 8 9 ; [ } . . . . ",
". . . . . 0 a b c d e f g h i j k l ; [ } . . . . . . ",
". . . . . 0 m n o p q r s t u v ; [ } . . . . . . . . ",
". . . . . 0 ; w x y z A B C D E F G H I J K . . . . . ",
". . . . . . 0 ; L M p N O P Q R S T U V W K . . . . . ",
". . . . . X Y Z `  ...+.A @.#.$.%.&.*.=.W K . . . . . ",
". . . -.;.; >.,.'.).!.~.{.].^./.(.G H I J K . . . . . ",
". . X Y _.:.<.[.}.|.1.2.3.4.; 5.6.7.8.. . . . . . . . ",
"-.;.H 9.0.a.b.c.d.e.f.H I J K . . . . . . . . . . . . ",
"g.h.i.j.k.l.m.; 5.6.7.8.. . . . . . . . . . . . . . . ",
"n.o.p.q.H I J K . . . . . . . . . . . . . . . . . . . ",
"g.g.g.7.8.. . . . . . . . . . . . . . . . . . . . . . "};
