/* XPM */
static char * ir_xpm[] = {
"27 16 147 2",
"  	c None",
". 	c #8690A4",
"+ 	c #788193",
"@ 	c #5E6573",
"# 	c #444953",
"$ 	c #292C32",
"% 	c #4C3931",
"& 	c #9D5E3B",
"* 	c #AC6D4F",
"= 	c #7C6764",
"- 	c #1C1E22",
"; 	c #423024",
"> 	c #8F552D",
", 	c #BE6B36",
"' 	c #D67841",
") 	c #D0743F",
"! 	c #7F533C",
"~ 	c #423224",
"{ 	c #8F592D",
"] 	c #BE6F35",
"^ 	c #D57A35",
"/ 	c #E4802F",
"( 	c #E37D31",
"_ 	c #CB7138",
": 	c #734B31",
"< 	c #363A42",
"[ 	c #6B7383",
"} 	c #423424",
"| 	c #8F5D2D",
"1 	c #BD7335",
"2 	c #D58035",
"3 	c #E48A2E",
"4 	c #EB8D23",
"5 	c #ED8B1E",
"6 	c #E7842B",
"7 	c #CB7438",
"8 	c #6B4428",
"9 	c #515763",
"0 	c #453724",
"a 	c #8F612D",
"b 	c #BD7835",
"c 	c #D58635",
"d 	c #E4932D",
"e 	c #EA9B23",
"f 	c #EE9D1D",
"g 	c #EE9A1D",
"h 	c #ED951D",
"i 	c #E78A2A",
"j 	c #CB7737",
"k 	c #6B4628",
"l 	c #AD7133",
"m 	c #E49C2E",
"n 	c #EEAE1C",
"o 	c #EEAA1D",
"p 	c #EDA71D",
"q 	c #EEA31D",
"r 	c #ED9E1D",
"s 	c #E6912A",
"t 	c #CF7A3E",
"u 	c #6E4929",
"v 	c #AA7032",
"w 	c #E7A228",
"x 	c #EEAD1C",
"y 	c #EEA81D",
"z 	c #EEA51D",
"A 	c #EC9F1E",
"B 	c #E5902D",
"C 	c #D57D3F",
"D 	c #B86F35",
"E 	c #754D29",
"F 	c #272321",
"G 	c #202327",
"H 	c #3A3F48",
"I 	c #59606D",
"J 	c #778091",
"K 	c #AD7033",
"L 	c #E8A127",
"M 	c #EEA71D",
"N 	c #EDA31C",
"O 	c #EE9F1C",
"P 	c #EE9C1D",
"Q 	c #ED981D",
"R 	c #E88E27",
"S 	c #DE8333",
"T 	c #C77537",
"U 	c #A86A3E",
"V 	c #7C685D",
"W 	c #626A78",
"X 	c #25282D",
"Y 	c #362F23",
"Z 	c #C77D3A",
"` 	c #E7A128",
" .	c #EEAD1D",
"..	c #EEA91C",
"+.	c #EEA11D",
"@.	c #EE9E1D",
"#.	c #ED9A1D",
"$.	c #E89027",
"%.	c #DD8433",
"&.	c #C77637",
"*.	c #A86A3D",
"=.	c #7D8699",
"-.	c #3F444D",
";.	c #845E2C",
">.	c #D89034",
",.	c #ECB21E",
"'.	c #EEB31C",
").	c #EEAF1C",
"!.	c #EDAB1D",
"~.	c #EBA221",
"{.	c #E4942D",
"].	c #D38235",
"^.	c #B87134",
"/.	c #764E29",
"(.	c #363023",
"_.	c #C38237",
":.	c #E6AC28",
"<.	c #EEBB1B",
"[.	c #ECB71C",
"}.	c #E7A726",
"|.	c #DD9232",
"1.	c #C67E36",
"2.	c #9A662F",
"3.	c #473724",
"4.	c #2B2E34",
"5.	c #494E59",
"6.	c #676F7E",
"7.	c #818B9E",
"8.	c #85642E",
"9.	c #D89734",
"0.	c #EAB922",
"a.	c #E5A62C",
"b.	c #D38E35",
"c.	c #B87934",
"d.	c #755529",
"e.	c #272421",
"f.	c #515864",
"g.	c #555248",
"h.	c #C7843B",
"i.	c #DA8C3E",
"j.	c #C68736",
"k.	c #9A6D2F",
"l.	c #473B24",
"m.	c #827252",
"n.	c #B4833E",
"o.	c #7A5F2C",
"p.	c #2B2A26",
". . . . . . . . . . . . . . . . . . . . . + @ @ @ @ + ",
". . . . . . . . . . . . . . . . . + @ # $ $ % & * = + ",
". . . . . . . . . . . . . + @ # $ - ; > , ' ) ! @ @ + ",
". . . . . . . . . + @ # $ - ~ { ] ^ / ( _ : $ < [ . . ",
". . . . . + @ # $ - } | 1 2 3 4 5 6 7 8 - < [ . . . . ",
". . . . . 9 0 a b c d e f g h i j k - < [ . . . . . . ",
". . . . . 9 l m n o p q r s t u - < [ . . . . . . . . ",
". . . . . 9 - v w x y z A B C D E F G H I J . . . . . ",
". . . . . . 9 - K L o M N O P Q R S T U V J . . . . . ",
". . . . . W X Y Z `  ...z +.@.#.$.%.&.*.V J . . . . . ",
". . . =.-.- ;.>.,.'.).!.~.{.].^./.F G H I J . . . . . ",
". . W X (._.:.<.[.}.|.1.2.3.- 4.5.6.7.. . . . . . . . ",
"=.-.G 8.9.0.a.b.c.d.e.G H I J . . . . . . . . . . . . ",
"f.g.h.i.j.k.l.- 4.5.6.7.. . . . . . . . . . . . . . . ",
"m.n.o.p.G H I J . . . . . . . . . . . . . . . . . . . ",
"f.f.f.6.7.. . . . . . . . . . . . . . . . . . . . . . "};
