/* XPM */
static char * led_lit_amber_black_border_64x64_xpm[] = {
"64 64 217 2",
"  	c None",
". 	c #3D3D3D",
"+ 	c #494739",
"@ 	c #6D682D",
"# 	c #9D921E",
"$ 	c #9D931E",
"% 	c #797229",
"& 	c #615D31",
"* 	c #928922",
"= 	c #C2B413",
"- 	c #E6D607",
"; 	c #FFEF00",
"> 	c #FFF000",
", 	c #FFEE00",
"' 	c #FFED00",
") 	c #CEBF0F",
"! 	c #555235",
"~ 	c #DACA0B",
"{ 	c #FFF100",
"] 	c #FFF300",
"^ 	c #FFF400",
"/ 	c #FFF500",
"( 	c #FFF200",
"_ 	c #928822",
": 	c #F2E103",
"< 	c #FFF600",
"[ 	c #FFF700",
"} 	c #FFF800",
"| 	c #FFFB00",
"1 	c #FFF900",
"2 	c #F2E003",
"3 	c #9D911E",
"4 	c #E6D507",
"5 	c #FFFC00",
"6 	c #FFFD00",
"7 	c #DAC80B",
"8 	c #6D662D",
"9 	c #A99D1A",
"0 	c #FFFE00",
"a 	c #FFFF01",
"b 	c #FFFF02",
"c 	c #FFFF00",
"d 	c #FFEB00",
"e 	c #FFFF03",
"f 	c #FFFF05",
"g 	c #FFFF06",
"h 	c #B5A716",
"i 	c #555135",
"j 	c #FFFF07",
"k 	c #FFFF08",
"l 	c #FFFF09",
"m 	c #FFFF0A",
"n 	c #FFFF0B",
"o 	c #DAC70B",
"p 	c #E6D207",
"q 	c #FFFF0D",
"r 	c #FFFF0E",
"s 	c #FFFF0F",
"t 	c #FFFF10",
"u 	c #FFFF13",
"v 	c #FFFF15",
"w 	c #FFFF11",
"x 	c #CEBB0F",
"y 	c #A99B1A",
"z 	c #FFFF17",
"A 	c #FFFF18",
"B 	c #FFFF1A",
"C 	c #FFFF1B",
"D 	c #FFFF0C",
"E 	c #FFE900",
"F 	c #A99A1A",
"G 	c #797129",
"H 	c #FFFF1C",
"I 	c #FFFF1F",
"J 	c #FFFF22",
"K 	c #FFFF20",
"L 	c #FFE700",
"M 	c #797029",
"N 	c #F2DC03",
"O 	c #FFFF16",
"P 	c #FFFF23",
"Q 	c #FFFF25",
"R 	c #FFFF26",
"S 	c #FFFF27",
"T 	c #E6CF07",
"U 	c #9D8F1E",
"V 	c #FFFF29",
"W 	c #FFFF2A",
"X 	c #FFFF2D",
"Y 	c #FFFF2F",
"Z 	c #FFFF2B",
"` 	c #FFFF1E",
" .	c #FFE400",
"..	c #FFFF32",
"+.	c #FFFF33",
"@.	c #FFFF35",
"#.	c #F2D903",
"$.	c #A9981A",
"%.	c #FFFF37",
"&.	c #FFFF3A",
"*.	c #FFFF3C",
"=.	c #FFFF38",
"-.	c #FFE600",
";.	c #9D8E1E",
">.	c #F2D703",
",.	c #FFFF3E",
"'.	c #FFFF40",
").	c #FFFF41",
"!.	c #FFFF43",
"~.	c #FFE800",
"{.	c #E6CE07",
"].	c #867926",
"^.	c #FFFF30",
"/.	c #FFFF48",
"(.	c #FFFF4A",
"_.	c #FFFF4C",
":.	c #FFFF46",
"<.	c #615A31",
"[.	c #C2AC13",
"}.	c #FFFF50",
"|.	c #FFFF52",
"1.	c #FFFF4E",
"2.	c #F2D503",
"3.	c #FFFF56",
"4.	c #FFFF58",
"5.	c #FFFF5C",
"6.	c #FFFF5A",
"7.	c #DAC10B",
"8.	c #555035",
"9.	c #FFE000",
"0.	c #FFFF60",
"a.	c #FFFF66",
"b.	c #FFFF68",
"c.	c #FFFF64",
"d.	c #FFFF45",
"e.	c #6D642D",
"f.	c #FFFF54",
"g.	c #FFFF62",
"h.	c #FFFF6F",
"i.	c #FFFF72",
"j.	c #FFE200",
"k.	c #9D8A1E",
"l.	c #FFFF76",
"m.	c #FFFF7D",
"n.	c #FFFF6B",
"o.	c #FFFF74",
"p.	c #FFFF84",
"q.	c #FFFF7F",
"r.	c #FFFF6D",
"s.	c #928122",
"t.	c #FFFF87",
"u.	c #FFDF00",
"v.	c #FFFF5E",
"w.	c #9D891E",
"x.	c #867726",
"y.	c #928022",
"z.	c #FFDE00",
"A.	c #6D632D",
"B.	c #FFDC00",
"C.	c #FFE300",
"D.	c #615931",
"E.	c #FFD900",
"F.	c #F2D103",
"G.	c #DABA0B",
"H.	c #CEB10F",
"I.	c #B59D16",
"J.	c #9D881E",
"K.	c #6D622D",
"L.	c #FFDB00",
"M.	c #E6C307",
"N.	c #E6C407",
"O.	c #927F22",
"P.	c #867526",
"Q.	c #494639",
"R.	c #F2CB03",
"S.	c #F2CE03",
"T.	c #9D871E",
"U.	c #FFD700",
"V.	c #DAB70B",
"W.	c #DAB80B",
"X.	c #6D612D",
"Y.	c #FFD400",
"Z.	c #615831",
"`.	c #9D851E",
" +	c #FFD500",
".+	c #FFD800",
"++	c #9D861E",
"@+	c #C2A213",
"#+	c #DAB50B",
"$+	c #494539",
"%+	c #DAB30B",
"&+	c #F2C703",
"*+	c #615731",
"=+	c #C2A013",
"-+	c #927B22",
";+	c #FFD100",
">+	c #A98E1A",
",+	c #DAB20B",
"'+	c #FFD300",
")+	c #E6BC07",
"!+	c #6D602D",
"~+	c #867226",
"{+	c #E6BB07",
"]+	c #F2C503",
"^+	c #9D841E",
"/+	c #867126",
"(+	c #E6B907",
"_+	c #FFCE00",
":+	c #FFCF00",
"<+	c #615631",
"[+	c #9D821E",
"}+	c #CEA70F",
"|+	c #FFCC00",
"1+	c #F2C403",
"2+	c #6D5F2D",
"3+	c #796729",
"4+	c #554E35",
"                                                                                                                                ",
"                                                  . . . . . . . . . . . . . .                                                   ",
"                                          . . . . . . . . . . . . . . . . . . . . . .                                           ",
"                                      . . . . . . . . . . . . . . . . . . . . . . . . . .                                       ",
"                                  . . . . . . . . . . . . . . . . . . . . . . . . . . . . . .                                   ",
"                              . . . . . . . . . . . . . . . . . . . . . . . . . . . . . . . . . .                               ",
"                          . . . . . . . . . . . . . . . . . . . . . . . . . . . . . . . . . . . . .                             ",
"                        . . . . . . . . . . . . . . . . + @ # # $ # % & . . . . . . . . . . . . . . . .                         ",
"                      . . . . . . . . . . . . . & * = - ; ; > > ; ; , , ' ) # ! . . . . . . . . . . . . .                       ",
"                    . . . . . . . . . . . + * ~ ; > { ] ] ^ ^ ^ / / ] ( ( > ; , ~ _ + . . . . . . . . . . .                     ",
"                  . . . . . . . . . . + $ : > { ] ^ < [ } } | 1 1 1 } } [ < ^ ( > , 2 3 . . . . . . . . . . .                   ",
"                . . . . . . . . . . % 4 ; { ] < } } | 5 6 6 6 6 6 6 6 6 5 1 } [ / ( > , 7 8 . . . . . . . . . .                 ",
"              . . . . . . . . . . 9 ' > ] < } | 5 6 0 a a a a b b a a a c 6 6 | 1 [ / ( ; d 3 . . . . . . . . . .               ",
"            . . . . . . . . . + ~ ' { ] [ | 5 6 a a e e f g g g g g f f e b a 0 6 | } < ] ; d h . . . . . . . . . .             ",
"            . . . . . . . . i 7 ' { ^ } | 6 a a e g j k l m m n n n m k k g f e a 0 6 1 [ ^ { ' o + . . . . . . . .             ",
"          . . . . . . . . + p ' { / } | 6 a e g j m n q r r s t s s s r q n l g f e c 6 | [ ^ { d o + . . . . . . . .           ",
"          . . . . . . . + o d { ^ } | 0 a e j l n s t t u u v v v u u u w s r n k g e b 6 | } ^ > d x . . . . . . . .           ",
"        . . . . . . . . y d > ] } | 0 a f j m r t u u z A B C B C C A A z v u s D l g f b 6 | [ ^ ; E F . . . . . . . .         ",
"      . . . . . . . . G E , ] [ | 6 a f j m s u u z B H I I J J K J K I C B z u t r m g f a 6 | < ( , L M . . . . . . .         ",
"      . . . . . . . + N d > ^ 1 6 a e j m s u O A H K P Q R R S S R R R J K H B v w r m g f a 6 } ^ { d T + . . . . . . .       ",
"      . . . . . . . U E ; ] } | c e g m s u O C I P R V W X X X X Y Z Z V R J ` C O u s m g e c | } ^ , L U . . . . . . .       ",
"    . . . . . . . i  .d { / | 6 a f l q t O C I P S Z Y ....+.@.@.@.....Y W S J I C O w q l g a 6 | / { d #.+ . . . . . . .     ",
"    . . . . . . . $.L ' ( [ | c b j m t u A I P V X ..+.%.&.&.*.*.*.=.%.@...X S Q I C O t q j e c | } ] ' -.;.. . . . . . .     ",
"    . . . . . . . >.E ; ^ } 6 a f l r t z H P R Z ..@.&.,.'.).!.!.!.).,.&.%.+.X V P I A u r m g a 6 1 ^ , ~.{.. . . . . . .     ",
"  . . . . . . . ]. .d > < | 6 b g m r u A I Q W ^.+.&.'.!././.(._._./.:.).,.=.+.Z S J C O w n j e 0 | < { d  .<.. . . . . . .   ",
"  . . . . . . . [.-.d { < | 0 e j n t z H J V Y +.&.'.!./._.}.|.|.|.|.1.(.!.*.%.^.Z Q K A u r m f a 5 } ] ' -.$.. . . . . . .   ",
"  . . . . . . . 2.L ' ( [ 5 c e j r u A ` Q W ..%.,.!.(.1.3.4.5.5.5.6.4.}._.!.,.%.^.V J C O t m g b 6 } ^ , L 7.. . . . . . .   ",
"  . . . . . . 8.9.L , ( } 5 a e l r u C J V Y +.*.)./.|.3.5.0.a.b.b.c.0.6.|._.d.,.@.^.S K A w D g b 6 1 ^ ; ~.9.. . . . . . .   ",
"  . . . . . . e.9.~., ( } 6 a f l r v ` Q Z ..=.'.:.1.f.5.g.b.h.i.h.h.b.g.6.f._.!.&.@.X R C u D j e 0 | ^ > E j.<.. . . . . .   ",
"  . . . . . . k.j.L , ( } 6 a f m s z I S X +.&.!./.|.4.0.b.h.l.m.m.l.h.a.0.4.}.:.'.%.^.S ` u q j e 0 | / > E j.e.. . . . . .   ",
". . . . . . . k.j.E ' ] } 6 a f m s v K S Y +.*.!.(.|.4.0.n.o.m.p.p.q.o.r.g.6.}.:.).=...S ` u r j e 0 | ^ > E j.s.. . . . . .   ",
". . . . . . . k.j.L ' ( [ 5 a f l r v K V Y +.*.)./.|.4.0.n.o.m.p.t.q.l.n.g.6.}./.).=...S ` u r j e 0 | ^ > ~.j.k.. . . . . .   ",
"  . . . . . . k.u.-.' ( [ 5 a f k r v ` R X ..%.'./.}.4.0.b.h.l.q.q.l.h.a.v.4.}.:.,.%.^.S C u D j e 0 1 ^ ; ~.9.k.. . . . . .   ",
"  . . . . . . w.u.-.d ( < 5 0 e j D u H P V Y +.*.!.(.f.6.g.b.h.i.i.h.a.g.6.|._.!.&.@.Z Q C w n g a 6 } ^ ; L 9.x.. . . . . .   ",
"  . . . . . . y.z. .d > < | 6 e g n w A K Q Z ..%.,.:._.f.4.0.g.b.b.c.v.6.|._.d.*.@.X S K z t n g a 5 } ] ' L u.A.. . . . . .   ",
"  . . . . . . A.B.C.E ; / } 6 a f l s v B K R Z ..=.'.d._.}.f.6.6.5.4.3.}./.!.,.@.Y V J C v r k e c 5 [ ( d -.B.D.. . . . . .   ",
"  . . . . . . . E.9.~., ( } | c e k D t O C K R X +.=.*.!./._.}.}.}.1.(.:.!.&.%.^.V P ` z w D g e 0 1 / { d C.F.. . . . . . .   ",
"  . . . . . . . G.z. .d { < | 6 b g m s u z ` J S Z ^.%.,.'.!.d.:.:.:.!.,.&.+.Y W Q I A u r l g a 6 } ] ; L 9.H.. . . . . . .   ",
"  . . . . . . . I.B.C.E , / } 5 c f j D t u B I P S Z ^.@.=.&.,.,.,.*.&.=.+.Y W R K B O t n g e 6 | [ ( d -.B.J.. . . . . . .   ",
"  . . . . . . . K.E.9.-.d ( / 1 6 b g k q w v B I J S W X ^.+.@.%.%.+...Y Z V Q K C O w r k f a 6 1 ^ ; E j.L.D.. . . . . .     ",
"    . . . . . . . M.z. .E ; ^ [ | 0 e g l q w O A ` K Q R W W X X Y X W V R P I B O w r n g a 6 | < ] d L u.N.. . . . . . .     ",
"    . . . . . . . O.E.9.L d { / } 5 c e g m q w u z C ` K J Q R R R Q P J I H A O w r n g e 0 5 } ] ; ~.j.L.P.. . . . . . .     ",
"    . . . . . . . Q.R.B.j.L , ( / 1 6 a e g l q t u u z B C ` I I I I ` C A O u t r n g e a 5 } ^ ; d  .z.S.. . . . . . . .     ",
"      . . . . . . . T.U.z. .E ; ] < | 6 c e g k n r w u u z z z A A z z v u w r n k g e a 5 1 / ( ' L 9.L.J.. . . . . . .       ",
"      . . . . . . . . V.E.u. .d ; ^ < 1 6 c b g g m n r s w w u u u w t s r n l g f a 0 5 1 / ( ' ~.j.B.W.. . . . . . . .       ",
"        . . . . . . . X.Y.B.j.-.d ; ] < 1 | 0 a e g g l l n D q r r D n m k g f e a 6 5 } / ( ' ~. .z.U.Z.. . . . . . .         ",
"        . . . . . . . . `. +B.j.-.d , ( / } | 6 0 a b e g g g j j j g g g e b a 6 6 | } ^ ( ' ~. .z..+++. . . . . . . .         ",
"          . . . . . . . . @+ +L.9. .E , { ^ < } | 6 6 0 a a b e b e b a a 0 6 6 | } / ] ; ' ~. .z..+#+. . . . . . . .           ",
"          . . . . . . . . $+%+ +L.u.C.~.d ; ( ^ < } | | 5 6 6 0 6 6 6 6 5 | 1 } < ] ( ; d L j.B..+#+$+. . . . . . . .           ",
"            . . . . . . . . $+#+Y.L.z.C.-.E ' > ( ^ / < } } } | | 1 1 } [ [ / ] { ; d ~. .9.B.U.&+*+. . . . . . . .             ",
"              . . . . . . . . $+=+Y..+L.9.C.-.E d , > { ] ^ ^ ^ ^ ^ ^ ^ ] ( ; ' d ~.-.j.z.L.Y.#+$+. . . . . . . .               ",
"              . . . . . . . . . . -+;+ +L.B.9.C. .L E d ' ' ; ; ; ; ; , d d ~.L  .j.z.L.U.;+>+$+. . . . . . . . .               ",
"                . . . . . . . . . . *+,+'+ +E.B.9.9.C. .L L ~.L L L L L L  .j.9.B.L.U.Y.)+!+. . . . . . . . . .                 ",
"                  . . . . . . . . . . . ~+{+;+ +U.E.L.B.u.9.j.9.9.j.u.u.B.B.L.E. +'+]+^+. . . . . . . . . . .                   ",
"                    . . . . . . . . . . . . /+(+_+;+Y. +E.E.E.E.E.E.E.U. +Y.Y.:+)+-+$+. . . . . . . . . . .                     ",
"                      . . . . . . . . . . . . . <+[+}+|+_+;+;+;+;+;+:+:+1+}+[+*+. . . . . . . . . . . . .                       ",
"                        . . . . . . . . . . . . . . . . 2+3+[+[+[+[+!+4+. . . . . . . . . . . . . . . .                         ",
"                            . . . . . . . . . . . . . . . . . . . . . . . . . . . . . . . . . . . . .                           ",
"                              . . . . . . . . . . . . . . . . . . . . . . . . . . . . . . . . . .                               ",
"                                  . . . . . . . . . . . . . . . . . . . . . . . . . . . . . .                                   ",
"                                      . . . . . . . . . . . . . . . . . . . . . . . . . .                                       ",
"                                          . . . . . . . . . . . . . . . . . . . . . .                                           ",
"                                                  . . . . . . . . . . . . . .                                                   ",
"                                                                                                                                "};
