/* XPM */
static char * led_unlit_clear_border_64x64_xpm[] = {
"64 64 147 2",
"  	c None",
". 	c #3D3D3D",
"+ 	c #454545",
"@ 	c #5D5D5D",
"# 	c #7D7D7D",
"$ 	c #7C7C7C",
"% 	c #646464",
"& 	c #545454",
"* 	c #555555",
"= 	c #767676",
"- 	c #979797",
"; 	c #B0B0B0",
"> 	c #C2C2C2",
", 	c #C1C1C1",
"' 	c #BFBFBF",
") 	c #BEBEBE",
"! 	c #BDBDBD",
"~ 	c #9C9C9C",
"{ 	c #7B7B7B",
"] 	c #4C4C4C",
"^ 	c #A8A8A8",
"/ 	c #C3C3C3",
"( 	c #C4C4C4",
"_ 	c #BBBBBB",
": 	c #A2A2A2",
"< 	c #737373",
"[ 	c #444444",
"} 	c #7F7F7F",
"| 	c #C5C5C5",
"1 	c #C6C6C6",
"2 	c #C7C7C7",
"3 	c #C8C8C8",
"4 	c #BCBCBC",
"5 	c #797979",
"6 	c #666666",
"7 	c #B2B2B2",
"8 	c #C9C9C9",
"9 	c #CACACA",
"0 	c #CBCBCB",
"a 	c #CCCCCC",
"b 	c #C0C0C0",
"c 	c #B9B9B9",
"d 	c #A0A0A0",
"e 	c #5B5B5B",
"f 	c #878787",
"g 	c #CDCDCD",
"h 	c #CECECE",
"i 	c #CFCFCF",
"j 	c #D1D1D1",
"k 	c #D0D0D0",
"l 	c #B6B6B6",
"m 	c #787878",
"n 	c #A9A9A9",
"o 	c #D3D3D3",
"p 	c #D4D4D4",
"q 	c #D5D5D5",
"r 	c #B8B8B8",
"s 	c #4D4D4D",
"t 	c #D8D8D8",
"u 	c #DADADA",
"v 	c #DBDBDB",
"w 	c #D9D9D9",
"x 	c #D7D7D7",
"y 	c #D2D2D2",
"z 	c #BABABA",
"A 	c #B5B5B5",
"B 	c #B1B1B1",
"C 	c #DDDDDD",
"D 	c #DFDFDF",
"E 	c #E0E0E0",
"F 	c #DEDEDE",
"G 	c #D6D6D6",
"H 	c #B7B7B7",
"I 	c #9B9B9B",
"J 	c #E2E2E2",
"K 	c #E3E3E3",
"L 	c #E4E4E4",
"M 	c #E1E1E1",
"N 	c #B3B3B3",
"O 	c #939393",
"P 	c #858585",
"Q 	c #E6E6E6",
"R 	c #E8E8E8",
"S 	c #E7E7E7",
"T 	c #E5E5E5",
"U 	c #656565",
"V 	c #EAEAEA",
"W 	c #EBEBEB",
"X 	c #ECECEC",
"Y 	c #E9E9E9",
"Z 	c #DCDCDC",
"` 	c #606060",
" .	c #EDEDED",
"..	c #EEEEEE",
"+.	c #B4B4B4",
"@.	c #434343",
"#.	c #EFEFEF",
"$.	c #F0F0F0",
"%.	c #AFAFAF",
"&.	c #747474",
"*.	c #F1F1F1",
"=.	c #A5A5A5",
"-.	c #838383",
";.	c #AEAEAE",
">.	c #9E9E9E",
",.	c #6B6B6B",
"'.	c #ACACAC",
").	c #515151",
"!.	c #929292",
"~.	c #ADADAD",
"{.	c #959595",
"].	c #505050",
"^.	c #575757",
"/.	c #ABABAB",
"(.	c #707070",
"_.	c #AAAAAA",
":.	c #A7A7A7",
"<.	c #777777",
"[.	c #636363",
"}.	c #A6A6A6",
"|.	c #565656",
"1.	c #5A5A5A",
"2.	c #9D9D9D",
"3.	c #898989",
"4.	c #848484",
"5.	c #6F6F6F",
"6.	c #595959",
"7.	c #A3A3A3",
"8.	c #A4A4A4",
"9.	c #969696",
"0.	c #6E6E6E",
"a.	c #626262",
"b.	c #8D8D8D",
"c.	c #585858",
"d.	c #4F4F4F",
"e.	c #949494",
"f.	c #A1A1A1",
"g.	c #999999",
"h.	c #8C8C8C",
"i.	c #424242",
"j.	c #919191",
"k.	c #989898",
"l.	c #6D6D6D",
"m.	c #676767",
"n.	c #888888",
"o.	c #868686",
"p.	c #494949",
"                                                                                                                                ",
"                                                  . . . . . . . . . . . . . .                                                   ",
"                                          . . . . . . . . . . . . . . . . . . . . . .                                           ",
"                                      . . . . . . . . . . . . . . . . . . . . . . . . . .                                       ",
"                                  . . . . . . . . . . . . . . . . . . . . . . . . . . . . . .                                   ",
"                              . . . . . . . . . . . . . . . . . . . . . . . . . . . . . . . . . .                               ",
"                          . . . . . . . . . . . . . . . . . . . . . . . . . . . . . . . . . . . . .                             ",
"                        . . . . . . . . . . . . . . . . + @ # # $ $ % & . . . . . . . . . . . . . . . .                         ",
"                      . . . . . . . . . . . . . * = - ; > , , , ' ' ) ) ! ~ { ] . . . . . . . . . . . . .                       ",
"                    . . . . . . . . . . . + = ^ > / / ( ( ( ( / / > > , ' ) ! _ : < [ . . . . . . . . . . .                     ",
"                  . . . . . . . . . . + } _ | | 1 2 3 3 2 1 2 1 | | ( / > , ' ) 4 _ ; 5 . . . . . . . . . . .                   ",
"                . . . . . . . . . . 6 7 1 2 8 9 9 0 a a 0 0 8 3 8 3 1 | ( / , b ' 4 _ c d e . . . . . . . . . .                 ",
"              . . . . . . . . . . f 1 3 9 a g h i j k k i h g a 0 9 8 3 1 | ( > , ' 4 _ c l m . . . . . . . . . .               ",
"            . . . . . . . . . + n 1 8 a h j o p q q q p o j k i h g 0 9 8 3 1 ( > b ' ! _ r l f . . . . . . . . . .             ",
"            . . . . . . . . s ^ 1 8 a i o q t u v u w t x q p y j i h a 0 8 3 1 | > , ) 4 z r A ~ [ . . . . . . . .             ",
"          . . . . . . . . + B 1 8 g j q t v C D D E D F v u t G p y k i h a 9 3 1 ( / , ) 4 c H A I [ . . . . . . . .           ",
"          . . . . . . . + ^ / 3 a k q t C E J K L L K M E C v w x q o y i h a 9 3 1 ( > ' ! _ c A N O . . . . . . . .           ",
"        . . . . . . . . P / 1 9 i o x C E L Q R R R S T K M F C u t q o y k h a 9 2 | / , ) 4 z H A 7 $ . . . . . . . .         ",
"      . . . . . . . . U , ( 3 0 j q u D L S V W X W W Y S L M F Z u x q o y i h a 8 2 | > ' ) _ r A N ; ` . . . . . . .         ",
"      . . . . . . . [ l > | 8 h y x C M T Y W  ..... .W V S K M F Z u x q o y i g 0 3 1 / , ) 4 c l +.7 d @.. . . . . . .       ",
"      . . . . . . . $ ' > 1 9 i p t F K S V  .#.$.$.#. .W R Q J E F v w x q o j h a 8 2 | > ' ! _ r A 7 %.&.. . . . . . .       ",
"    . . . . . . . ] ) , / 2 0 i p u F L R W ..$.$.*.$.#. .V R T J E C v t G q y i g 0 3 | / b ) _ r l 7 ; =.@.. . . . . . .     ",
"    . . . . . . . -.) , / 3 a k p u F K S W ..$.$.*.*.$...W R T J M F Z u t q o k h a 8 1 ( , ' _ c l N ; ;.< . . . . . . .     ",
"    . . . . . . . N ' , ( 3 a k p u C M Q V X ..$.*.*.$...W Y S L M D C v w G p j i g 8 2 | > ' 4 z H +.7 %.>.. . . . . . .     ",
"  . . . . . . . ,.4 ' > ( 8 a i p t C E T R W  ...#.$.#...X V S T J E F Z u x q y i h 0 3 | > ' 4 c r +.7 %.'.).. . . . . . .   ",
"  . . . . . . . !.4 ' > | 2 0 i y x v E J Q Y W  ..... . .W V S T K J D C v t q y j h 0 3 | / b 4 z r A 7 %.~.5 . . . . . . .   ",
"  . . . . . . . 7 4 ' > | 3 0 h y q u F M T S Y W X  . . .W V Y T L J M D Z u t q y i g 8 1 / , ) z r A 7 %.'.{.. . . . . . .   ",
"  . . . . . . ] c 4 ' > | 2 9 a k q t C M L S V W  . . . . .W V Y S Q L J E C v x q y i a 2 / b ) _ r A 7 %.'.n . . . . . . .   ",
"  . . . . . . e c 4 ) , ( 3 8 a h o x F J T R V W X ............X W Y S T J E C v t q y h 8 / , ) _ H A 7 %.'.n ].. . . . . .   ",
"  . . . . . . 5 r _ ) , / 1 8 a h j x F K T R V W  . ...#.#.#.#... .W R S K M D Z u x p i 8 / b ! z l A 7 %.'.n ^.. . . . . .   ",
". . . . . . . 5 c _ ) b / 1 8 0 h k q v M L Q S Y W X  ........... .W R Q L M F C u x p i 8 / ' 4 c H +.7 %.'.n ,.. . . . . .   ",
". . . . . . . m r z ) ' > | 3 9 a i p v E J L Q R Y V W X  . . ...W V S T J E F v w G o i 3 > ' 4 c l N B ;./.^ (.. . . . . .   ",
"  . . . . . . m l c 4 ) > ( 2 8 a h y w F E J L Q S R Y V V W V W Y R T L M D Z u t q y h 2 > ) _ r l N ; ~._.:.(.. . . . . .   ",
"  . . . . . . <.l c _ ) b / | 3 8 a j x v F D M J L T Q Q S S S Q T L K E D Z u x q y i 0 1 b ) z r A 7 %.~._.:.[.. . . . . .   ",
"  . . . . . . (.A r z 4 ' , ( 1 3 0 h o x t u Z C D E M M M J J J M D F Z u t q o j h 0 3 / ' 4 z H +.B %.'.n }.|.. . . . . .   ",
"  . . . . . . 1.+.l c 4 ) , / | 2 8 a i j p G x t u v v Z Z C C Z v u w x q y j i a 9 2 | , ) _ r l N ; ;./.^ }.].. . . . . .   ",
"  . . . . . . . N A r z 4 ' , / | 3 8 0 h i j y p q G x t t t t t x G p o j i g 0 8 1 / > ' 4 c r A 7 %.~._.:.2.. . . . . . .   ",
"  . . . . . . . I +.l c _ ) ' > ( | 3 9 0 a i i j y o p q q q q q p y y k h a 0 8 1 | > b ! _ c l N ; ;.'.n }.3.. . . . . . .   ",
"  . . . . . . . 4.7 A H c 4 ) , > ( 1 3 8 0 a h i k j j y y y y j j k h h a 0 8 1 | > , ) 4 c H +.7 %.~._.:.=.5.. . . . . . .   ",
"  . . . . . . . 6.B N l H z _ ) , > / | 2 8 9 0 g h h i i i i i i h g a 0 8 3 1 ( > , ) 4 z r A N ; ;./.n }.7.].. . . . . .     ",
"    . . . . . . . d 7 N l r z 4 ) ' > / | 1 2 3 8 9 0 0 a g a a 0 0 9 8 8 2 1 ( > , ) ! z r l N B %.'._.:.8.9.. . . . . . .     ",
"    . . . . . . . 0.%.7 +.l r z 4 ) b , > ( | 1 2 3 8 8 9 8 8 9 8 8 3 1 1 | / > b ) 4 z r l A 7 ; ~./.^ }.8.a.. . . . . . .     ",
"    . . . . . . . @.}.; 7 A l r z 4 ) ' b , / ( | 1 1 1 1 1 2 2 1 1 | | / > , ' ! 4 z r l A 7 ; ~./.n :.8.I . . . . . . . .     ",
"      . . . . . . . &.;.; 7 +.l r c _ 4 ) ' b , > > / ( ( ( ( ( ( / / , , ' ) ! _ z r l A 7 ; ;.'._.:.=.7.0.. . . . . . .       ",
"      . . . . . . . . - ~.; 7 +.A H r _ _ 4 ) ) ' , , , > , > > , , b ' ) ! 4 z c r l +.7 ; ;.'._.:.=.8.b.. . . . . . . .       ",
"        . . . . . . . c.'.;.%.B N A l H r z _ 4 4 ) ) ' ) ' ' ) ) ) ! 4 4 z c r l A N B ; ~.'._.^ }.8.: d.. . . . . . .         ",
"        . . . . . . . . < '.~.%.B 7 N A l H r c z _ _ 4 4 4 4 _ _ _ z c c r l A +.N B %.~.'._.^ }.8.: 0.. . . . . . . .         ",
"          . . . . . . . . f /.'.;.; 7 N N A A l r r r r c c r c r r r l l A +.N B ; ;.~.'._.^ =.8.: b.. . . . . . . .           ",
"          . . . . . . . . @.e._.'.~.;.; ; 7 N N A A A l l l l l l A A +.N 7 B ; %.~.'._.n :.=.7.: b.@.. . . . . . . .           ",
"            . . . . . . . . @.O n _.'.~.;.%.; 7 7 7 N N N N N N N N 7 B ; %.%.~.'._._.^ }.=.7.f.g.d.. . . . . . . .             ",
"              . . . . . . . . @.P ^ _./.'.~.;.;.%.; ; ; ; ; B ; ; %.%.%.~.~././.n n :.=.8.7.f.h.@.. . . . . . . .               ",
"              . . . . . . . . . . ,.}.:.n n _.'.'.'.'.~.~.~.~.~.~.~.'.'./._.n ^ :.}.8.7.: d < i.. . . . . . . . .               ",
"                . . . . . . . . . . ].j.}.:.^ n n n _._._._._._._.n n n ^ :.}.}.8.7.: d !.* . . . . . . . . . .                 ",
"                  . . . . . . . . . . . [.- =.}.}.:.:.^ :.:.:.:.:.:.}.}.=.8.8.7.: d k.l.. . . . . . . . . . .                   ",
"                    . . . . . . . . . . . . [.9.8.8.8.8.8.=.=.=.8.8.7.7.: : d d !.m.i.. . . . . . . . . . .                     ",
"                      . . . . . . . . . . . . . d.5.n.: : : : : : : d d k.o.l.d.. . . . . . . . . . . . .                       ",
"                        . . . . . . . . . . . . . . . . * e l.l.l.l.* p.. . . . . . . . . . . . . . . .                         ",
"                            . . . . . . . . . . . . . . . . . . . . . . . . . . . . . . . . . . . . .                           ",
"                              . . . . . . . . . . . . . . . . . . . . . . . . . . . . . . . . . .                               ",
"                                  . . . . . . . . . . . . . . . . . . . . . . . . . . . . . .                                   ",
"                                      . . . . . . . . . . . . . . . . . . . . . . . . . .                                       ",
"                                          . . . . . . . . . . . . . . . . . . . . . .                                           ",
"                                                  . . . . . . . . . . . . . .                                                   ",
"                                                                                                                                "};
