/* XPM */
static char * listenerphones_xpm[] = {
"42 32 20 1",
" 	c None",
".	c #232323",
"+	c #585858",
"@	c #2A2A2A",
"#	c #404040",
"$	c #262626",
"%	c #252525",
"&	c #343434",
"*	c #373737",
"=	c #959595",
"-	c #3B3B3B",
";	c #414141",
">	c #4D4D4D",
",	c #454545",
"'	c #727272",
")	c #282828",
"!	c #2C2C2C",
"~	c #2F2F2F",
"{	c #474747",
"]	c #696969",
"                                          ",
"                                          ",
"                                          ",
"                ...........               ",
"             ................             ",
"           .....           ....           ",
"         ....                ....         ",
"        ...                    ...        ",
"       ...                      ...       ",
"       ..                        ...      ",
"      ..                          ..      ",
"      ..                          ...     ",
"     ..                            ..     ",
"     ..                            ..     ",
"     ..                            ..     ",
"     ..                            ..     ",
"     ..+@..#.               .........     ",
"     ........               .......$.     ",
"    .%.......               ........&     ",
"    *........               .........=    ",
"   .$........               .........-    ",
"   ..........               ..........    ",
"   ..........               ..........    ",
"   ..........               ..........    ",
"   .@........               .........;    ",
"    >........               .........     ",
"     ,.......               ........'     ",
"      >@...).               .!....~'      ",
"       .....                 .{,,]        ",
"                                          ",
"                                          ",
"                                          "};
