/* XPM */
static char * mic_off_xpm[] = {
"69 33 295 2",
"  	c None",
". 	c #595959",
"+ 	c #5A5A58",
"@ 	c #555555",
"# 	c #585858",
"$ 	c #656564",
"% 	c #666666",
"& 	c #5F5F62",
"* 	c #5E5C5D",
"= 	c #5A5A5A",
"- 	c #545453",
"; 	c #5F5F5F",
"> 	c #4E4E4E",
", 	c #515151",
"' 	c #5B5B58",
") 	c #79793E",
"! 	c #626363",
"~ 	c #626262",
"{ 	c #5D5D5D",
"] 	c #535353",
"^ 	c #4D4D4D",
"/ 	c #4B4B4B",
"( 	c #4A4A4A",
"_ 	c #545456",
": 	c #5C5C4F",
"< 	c #84833D",
"[ 	c #7A7935",
"} 	c #6A6A6A",
"| 	c #5F6060",
"1 	c #4C4C4C",
"2 	c #545454",
"3 	c #484848",
"4 	c #4F4F4F",
"5 	c #505050",
"6 	c #4B4B4E",
"7 	c #666547",
"8 	c #808037",
"9 	c #7B7A34",
"0 	c #606060",
"a 	c #565656",
"b 	c #525252",
"c 	c #434343",
"d 	c #3C3C3C",
"e 	c #494949",
"f 	c #434344",
"g 	c #4E4E50",
"h 	c #626139",
"i 	c #79782E",
"j 	c #7B7A31",
"k 	c #7C7B32",
"l 	c #77762F",
"m 	c #686868",
"n 	c #636363",
"o 	c #444444",
"p 	c #3D3D3D",
"q 	c #3F3F3F",
"r 	c #424242",
"s 	c #4B4B4C",
"t 	c #3A3A41",
"u 	c #62622D",
"v 	c #717124",
"w 	c #727227",
"x 	c #737328",
"y 	c #75752B",
"z 	c #77762C",
"A 	c #76752C",
"B 	c #75742B",
"C 	c #71712A",
"D 	c #6F6E29",
"E 	c #6B6C6B",
"F 	c #464646",
"G 	c #353535",
"H 	c #303030",
"I 	c #3C3C3B",
"J 	c #605F1C",
"K 	c #6A691D",
"L 	c #6A691E",
"M 	c #6B6A1F",
"N 	c #6D6C21",
"O 	c #6F6D23",
"P 	c #707025",
"Q 	c #727226",
"R 	c #76752A",
"S 	c #78772D",
"T 	c #78772E",
"U 	c #6D6C27",
"V 	c #616161",
"W 	c #5E5E5E",
"X 	c #383838",
"Y 	c #313131",
"Z 	c #3C3C37",
"` 	c #56551D",
" .	c #616015",
"..	c #616016",
"+.	c #646318",
"@.	c #656419",
"#.	c #67661A",
"$.	c #67661B",
"%.	c #69681D",
"&.	c #6C6B21",
"*.	c #706F24",
"=.	c #717026",
"-.	c #77762B",
";.	c #74732B",
">.	c #74732A",
",.	c #6C6C27",
"'.	c #3A3A3A",
").	c #373737",
"!.	c #3D3D38",
"~.	c #4E4E17",
"{.	c #555511",
"].	c #585713",
"^.	c #5A5813",
"/.	c #5C5B14",
"(.	c #5E5D15",
"_.	c #626216",
":.	c #666418",
"<.	c #68671C",
"[.	c #6A691F",
"}.	c #6E6E22",
"|.	c #706F25",
"1.	c #717126",
"2.	c #74742A",
"3.	c #75742A",
"4.	c #76762C",
"5.	c #76752D",
"6.	c #71702A",
"7.	c #5F5E5E",
"8.	c #3E3E3E",
"9.	c #3B3B3B",
"0.	c #343434",
"a.	c #464626",
"b.	c #4B4A0F",
"c.	c #4E4D11",
"d.	c #4F4F10",
"e.	c #525111",
"f.	c #545412",
"g.	c #555512",
"h.	c #585813",
"i.	c #5B5A12",
"j.	c #605F15",
"k.	c #646217",
"l.	c #6C6B20",
"m.	c #6D6D22",
"n.	c #6F6E24",
"o.	c #707125",
"p.	c #747429",
"q.	c #76752B",
"r.	c #78782D",
"s.	c #76762E",
"t.	c #73722B",
"u.	c #6A6B25",
"v.	c #5B5B5B",
"w.	c #474747",
"x.	c #4D4D3B",
"y.	c #505012",
"z.	c #4E4E11",
"A.	c #4D4C10",
"B.	c #4C4B10",
"C.	c #4C4B0F",
"D.	c #4D4D10",
"E.	c #4F4E11",
"F.	c #505011",
"G.	c #535312",
"H.	c #555412",
"I.	c #5A5A13",
"J.	c #5D5C14",
"K.	c #5F5E15",
"L.	c #636217",
"M.	c #66651A",
"N.	c #6C6B22",
"O.	c #737227",
"P.	c #757429",
"Q.	c #6C6B27",
"R.	c #676767",
"S.	c #646464",
"T.	c #5C5C5C",
"U.	c #4E4E51",
"V.	c #59591A",
"W.	c #595912",
"X.	c #565613",
"Y.	c #515011",
"Z.	c #4F5011",
"`.	c #4C4C10",
" +	c #504F11",
".+	c #575612",
"++	c #595913",
"@+	c #5C5B13",
"#+	c #5D5D14",
"$+	c #626116",
"%+	c #6B6A1E",
"&+	c #6E6D23",
"*+	c #6F6F24",
"=+	c #717025",
"-+	c #747329",
";+	c #75752A",
">+	c #78772C",
",+	c #6F6F27",
"'+	c #73732B",
")+	c #6C6C6C",
"!+	c #5B5C5C",
"~+	c #4D4D4C",
"{+	c #4F4F57",
"]+	c #505141",
"^+	c #656411",
"/+	c #606016",
"(+	c #5F5E14",
"_+	c #535211",
":+	c #636216",
"<+	c #656418",
"[+	c #69681E",
"}+	c #737329",
"|+	c #76762B",
"1+	c #77772C",
"2+	c #77742C",
"3+	c #6F6F2A",
"4+	c #4F5053",
"5+	c #565544",
"6+	c #666526",
"7+	c #69681C",
"8+	c #68671B",
"9+	c #646317",
"0+	c #5E5D14",
"a+	c #5B5B13",
"b+	c #565513",
"c+	c #545411",
"d+	c #515111",
"e+	c #4F4F11",
"f+	c #4C4A10",
"g+	c #4B4C0F",
"h+	c #525212",
"i+	c #595813",
"j+	c #646319",
"k+	c #6C6A20",
"l+	c #6D6B21",
"m+	c #727127",
"n+	c #737228",
"o+	c #77752C",
"p+	c #5D5C5D",
"q+	c #5A5B5A",
"r+	c #585857",
"s+	c #5E5E54",
"t+	c #6C6B41",
"u+	c #706F27",
"v+	c #70702A",
"w+	c #6B6A22",
"x+	c #68671E",
"y+	c #5F5E17",
"z+	c #626117",
"A+	c #5A5913",
"B+	c #575613",
"C+	c #535212",
"D+	c #4D4C11",
"E+	c #545311",
"F+	c #5A5A14",
"G+	c #5F5F15",
"H+	c #6F6E23",
"I+	c #76742A",
"J+	c #5D5C17",
"K+	c #605F17",
"L+	c #615F15",
"M+	c #616116",
"N+	c #5B5A13",
"O+	c #565512",
"P+	c #545312",
"Q+	c #4E4C10",
"R+	c #504E11",
"S+	c #585612",
"T+	c #6A681D",
"U+	c #686720",
"V+	c #585714",
"W+	c #646218",
"X+	c #575712",
"Y+	c #4B4B0F",
"Z+	c #515112",
"`+	c #5A5914",
" @	c #605F18",
".@	c #626118",
"+@	c #626217",
"@@	c #5B5A14",
"#@	c #595713",
"$@	c #4E4E10",
"%@	c #515010",
"&@	c #515211",
"*@	c #525112",
"=@	c #4E4D10",
"-@	c #605F16",
";@	c #4D4B10",
">@	c #4C4D11",
",@	c #5F5E16",
"'@	c #565612",
")@	c #585816",
"!@	c #636218",
"~@	c #5F5D14",
"{@	c #5B5B15",
"                                                                                                                                          ",
"                                                                                                                                          ",
"                                                                                                                                          ",
"                                                                                                                                          ",
"                                                                                                                                          ",
"                    . + @ # $ % &                                                                                                         ",
"                * = # - ; # > # , ' )                                                                                                     ",
"              ! ~ { ] ^ , / ; ( ^ _ : < [                                                                                                 ",
"            } | { # > 1 / 2 > 3 4 5 6 7 8 9                                                                                               ",
"            0 0 a b b 1 c 4 d c e f g h i j k l                                                                                           ",
"          m n 0 a > 4 o ^ p q r s t u v w x y z A B C D                                                                                   ",
"          E n # @ , o F q G H H I J K L M N O P Q x R z S T U                                                                             ",
"          V W @ @ ( 1 3 d X Y Z `  ...+.@.#.$.%.L &.N *.=.w -.A ;.>.;.,.                                                                  ",
"          n 0 = , , e ] q '.).!.~.{.].^./.(. ._.+.:.#.<.L [.N }.|.1.x 2.3.B 4.5.6.                                                        ",
"            7.@ = 5 ] e 8.9.0.q a.b.c.d.e.f.g.h.i.(.j._.k.@.@.$.%.L l.m.n.o.w p.q.r.s.t.u.                                                ",
"            n v.2 ] ^ 3 w.r o f x.y.z.A.B.C.D.E.F.G.H.].I.J.K...L.+.M.$.<.L l.N.}.|.O.P.z z B t.C Q.                                      ",
"              R.S.T.5 ^ ( 3 1 w.U.V.W.X.G.Y.Z.c.`.`.A.c. +e.f..+++@+#+j.$+k.@.#.<.%.%+&.&+*+=+-+;+z >+,+'+6.                              ",
"                )+!+> ^ > 4 5 ~+{+]+^+/+(+J.++].{._+ +z.D.B.`.A.E.F._+g.].I.J.K. .:+<+M.#.%.[+M N &+=+O.}+3.|+1+2+3+                      ",
"                  = W # b 4 b 4+5+6+7+8+M.@.9+:+K.0+a+h.b+c+d+e+D.f+g+`.D.y.h+f..+i+/.(+ .:++.j+$.<.%.k+l+&+n.m+n+-+o+T 5.'+              ",
"                      p+q+r+s+t+u+v+w+x+      y+z+L.$+ ...K./.A+B+g.C+ +D+A.C.`.D.E.d+E+{.h.F+0+G+..L.@.M.8+%.L l.N H+P n+I+>+            ",
"                                                        J+K+z+..L+M+#+N+h.O+P+F.z.D.`.B.A.Q+R+_+H.S+A+J.0+j.:++.@.M.<.T+M &.O U+          ",
"                                                                  V+L.W+L. .K.J.^.X+{.C+ +z.B.Y+C.A.z.Z+f.b+].`+(.j. .:+@.@.M.            ",
"                                                                           @.@z++@$+j.J.@@#@X.G.Z+d.`.C.B.A.$@%@&@f.X+A+/.0+j.            ",
"                                                                                    y+.@z+z+j.(./.A+X+H.*@ +=@`.B.B.c.E.e.P+g.            ",
"                                                                                            -@K+..$+..j.0+N+h.g.C+F.E.D.;@B.>@            ",
"                                                                                                      ,@K+L.L...0+N+i+'@G.e.d.            ",
"                                                                                                            )@!@+.k.:+ .~@{@              ",
"                                                                                                                                          ",
"                                                                                                                                          ",
"                                                                                                                                          ",
"                                                                                                                                          ",
"                                                                                                                                          ",
"                                                                                                                                          "};
