/* XPM */
static char * mic_unshown_xpm[] = {
"69 33 300 2",
"  	c None",
". 	c #ABBE00",
"+ 	c #AEB600",
"@ 	c #B3AA00",
"# 	c #A3D100",
"$ 	c #BF9200",
"% 	c #D65800",
"& 	c #E72F00",
"* 	c #F60900",
"= 	c #FB0100",
"- 	c #FB0000",
"; 	c #F70700",
"> 	c #EF1D00",
", 	c #DF4500",
"' 	c #D26100",
") 	c #C18D00",
"! 	c #94F600",
"~ 	c #C97700",
"{ 	c #EE2000",
"] 	c #FC0000",
"^ 	c #F11600",
"/ 	c #D94F00",
"( 	c #BB9B00",
"_ 	c #AFB700",
": 	c #AEBA00",
"< 	c #B1B000",
"[ 	c #B9A200",
"} 	c #C58200",
"| 	c #E63400",
"1 	c #E23B00",
"2 	c #A7C700",
"3 	c #A3D200",
"4 	c #E43800",
"5 	c #DF4400",
"6 	c #B2AD00",
"7 	c #96EF00",
"8 	c #93F800",
"9 	c #93FC00",
"0 	c #93FA00",
"a 	c #93F600",
"b 	c #9CE600",
"c 	c #C38700",
"d 	c #F41200",
"e 	c #F80400",
"f 	c #CB7000",
"g 	c #9AE300",
"h 	c #A5CD00",
"i 	c #B1B100",
"j 	c #92FB00",
"k 	c #99EA00",
"l 	c #DF4200",
"m 	c #EB2500",
"n 	c #ABC000",
"o 	c #A3CF00",
"p 	c #EA2700",
"q 	c #F31100",
"r 	c #B0B300",
"s 	c #92FA00",
"t 	c #93F700",
"u 	c #B8A100",
"v 	c #E53300",
"w 	c #CC7000",
"x 	c #ADB700",
"y 	c #DC4700",
"z 	c #F90300",
"A 	c #A9C400",
"B 	c #93FB00",
"C 	c #99EB00",
"D 	c #C28900",
"E 	c #F21700",
"F 	c #CD6B00",
"G 	c #A6C700",
"H 	c #C08C00",
"I 	c #CA7700",
"J 	c #91FA00",
"K 	c #A7C600",
"L 	c #DE4400",
"M 	c #F11800",
"N 	c #FA0300",
"O 	c #F60C00",
"P 	c #D45C00",
"Q 	c #C18A00",
"R 	c #B5A600",
"S 	c #C87800",
"T 	c #A4CD00",
"U 	c #98ED00",
"V 	c #ACBE00",
"W 	c #BE9100",
"X 	c #CE6A00",
"Y 	c #F01A00",
"Z 	c #F40F00",
"` 	c #CF6800",
" .	c #C67B00",
"..	c #BC9500",
"+.	c #D45B00",
"@.	c #F70B00",
"#.	c #97ED00",
"$.	c #92F900",
"%.	c #9FDA00",
"&.	c #B4A800",
"*.	c #D95200",
"=.	c #EE1D00",
"-.	c #F90200",
";.	c #EB2700",
">.	c #D85100",
",.	c #BD9400",
"'.	c #E23A00",
").	c #E73100",
"!.	c #94F800",
"~.	c #97F000",
"{.	c #99E900",
"].	c #A4D500",
"^.	c #B5A800",
"/.	c #C97A00",
"(.	c #E13F00",
"_.	c #F80700",
":.	c #F60D00",
"<.	c #E72E00",
"[.	c #D75800",
"}.	c #C48300",
"|.	c #B2A900",
"1.	c #F01B00",
"2.	c #C38800",
"3.	c #95F400",
"4.	c #A6CC00",
"5.	c #D75500",
"6.	c #F50D00",
"7.	c #F90400",
"8.	c #F70A00",
"9.	c #DC4900",
"0.	c #B0B200",
"a.	c #ABBF00",
"b.	c #B1AF00",
"c.	c #A0DB00",
"d.	c #BF9100",
"e.	c #D55D00",
"f.	c #E73000",
"g.	c #F50E00",
"h.	c #F70900",
"i.	c #ED1F00",
"j.	c #E13D00",
"k.	c #D06800",
"l.	c #C18900",
"m.	c #B6A800",
"n.	c #AFB400",
"o.	c #B8A200",
"p.	c #9CE000",
"q.	c #A3D000",
"r.	c #AFB500",
"s.	c #BE9200",
"t.	c #D65A00",
"u.	c #F41100",
"v.	c #F51000",
"w.	c #EA2900",
"x.	c #DF4000",
"y.	c #CF6500",
"z.	c #BA9800",
"A.	c #E92B00",
"B.	c #D55A00",
"C.	c #93F900",
"D.	c #94F500",
"E.	c #A1D900",
"F.	c #DE4700",
"G.	c #FA0600",
"H.	c #FA0200",
"I.	c #E43500",
"J.	c #C87900",
"K.	c #AFB300",
"L.	c #D65700",
"M.	c #F50C00",
"N.	c #97EF00",
"O.	c #A3D300",
"P.	c #B7A700",
"Q.	c #CA7400",
"R.	c #E83000",
"S.	c #F80600",
"T.	c #DA4C00",
"U.	c #A8C700",
"V.	c #C08E00",
"W.	c #C38600",
"X.	c #DB4D00",
"Y.	c #9BE200",
"Z.	c #E92C00",
"`.	c #F31200",
" +	c #ADBB00",
".+	c #ABBD00",
"++	c #E53600",
"@+	c #95F200",
"#+	c #AAC300",
"$+	c #B89D00",
"%+	c #C77A00",
"&+	c #D16500",
"*+	c #97F200",
"=+	c #B3AC00",
"-+	c #DE4600",
";+	c #A1D500",
">+	c #EC2500",
",+	c #F40E00",
"'+	c #CA7500",
")+	c #92FC00",
"!+	c #EF1C00",
"~+	c #DB4A00",
"{+	c #B4A900",
"]+	c #E23800",
"^+	c #D55C00",
"/+	c #C09000",
"(+	c #A1DA00",
"_+	c #9BE900",
":+	c #99EC00",
"<+	c #A4D300",
"[+	c #B4AF00",
"}+	c #C77E00",
"|+	c #D26300",
"1+	c #EC2400",
"2+	c #DD4900",
"3+	c #C58000",
"4+	c #B1B500",
"5+	c #99ED00",
"6+	c #96F400",
"7+	c #9DE300",
"8+	c #F90600",
"9+	c #C08B00",
"0+	c #D65600",
"a+	c #E63300",
"b+	c #F01900",
"c+	c #F11900",
"d+	c #E53400",
"e+	c #DC4A00",
"f+	c #EA2800",
"g+	c #D45A00",
"h+	c #C28A00",
"i+	c #B1B200",
"j+	c #9CE300",
"k+	c #B5AB00",
"l+	c #C67A00",
"m+	c #C48200",
"n+	c #CB7100",
"o+	c #CD6C00",
"p+	c #CF6700",
"q+	c #C77D00",
"r+	c #B3A900",
"s+	c #ACBB00",
"t+	c #BF8D00",
"u+	c #CE6900",
"v+	c #D55900",
"w+	c #ED2000",
"x+	c #DF4300",
"y+	c #CB7300",
"z+	c #BB9900",
"A+	c #A5CE00",
"B+	c #94F400",
"C+	c #CD6F00",
"D+	c #BF8B00",
"E+	c #BF8F00",
"F+	c #C97500",
"G+	c #DB4B00",
"H+	c #F60A00",
"I+	c #F21900",
"J+	c #DA4E00",
"K+	c #A8CB00",
"L+	c #E33900",
"M+	c #E82D00",
"N+	c #B4A500",
"O+	c #D65400",
"P+	c #F01C00",
"Q+	c #DA4F00",
"R+	c #B8A300",
"S+	c #AAC200",
"T+	c #9EDF00",
"U+	c #C97600",
"V+	c #EB2600",
"W+	c #E23E00",
"X+	c #D16700",
"Y+	c #B2AF00",
"Z+	c #A5CC00",
"`+	c #9FDD00",
" @	c #CD6E00",
".@	c #B6A700",
"+@	c #F41000",
"@@	c #D35E00",
"#@	c #9DE100",
"$@	c #95F500",
"%@	c #AEB900",
"&@	c #C38200",
"*@	c #D35C00",
"=@	c #F70800",
"-@	c #D26500",
";@	c #BA9F00",
">@	c #A7CE00",
",@	c #DD4800",
"'@	c #B79F00",
")@	c #ED2300",
"!@	c #DE4500",
"~@	c #ADBC00",
"{@	c #A6CD00",
"]@	c #D06500",
"^@	c #CA7200",
"/@	c #C47F00",
"(@	c #DA5000",
"_@	c #E43700",
"                      . + @                                                                                                               ",
"              # $ % & * = - ; * > , ' )                                                                                                   ",
"          ! ~ { ] ^ / ( _ : < [ } | * ] 1 2                                                                                               ",
"        3 4 - 5 6 7 8         9 0 a b c d e f g                                                                                           ",
"      h * * i j                       j k l ] m n                                                                                         ",
"    o p q r s                             t u v - w x                                                                                     ",
"    y z A B                                   C D ] E 1 F G                                                                               ",
"  H - I 0                                       J K L M N - O P Q R                                                                       ",
"  S - T                                             j U V W X 1 Y ] Z L `  ...                                                            ",
"  +.@.#.                                                    j $.%.&.} *.=.z -.;.>.w ,.                                                    ",
"  '.).!.                                                              ~.{.].^./.(._.] :.<.[.}.|.                                          ",
"  1.2.$.                                                                    j j j 3.4.5.;.6.7.e 8.9.0.a.                                  ",
"b.z <                                                                                 J 9 c.a.d.e.f.g.h.i.j.k.l.m.                        ",
"n.= o.j                                                                                         t p.q.r.s.t.u.] v.w.x.y.z.                ",
"  A.B.!.                                                                                                9 C.D.E.,.F.Y G.= H.I.J.K.        ",
"  L.M.N.                                                                                                          j j O.P.Q.R.v.] S.T.U.  ",
"  W - V.0                                                                                                                 J 9 q.m.W.-.X.  ",
"  Y.Z.`.~.                                                                                                                        j s.-  +",
"    .+e ++@+                                                                                                                        #+-.$+",
"      %+] &+*+                                                                                                                    s =+_.  ",
"        %+] -+;+j                                                                                                                 C.&+>+  ",
"          ,.H.,+'+~.9 j j           )+j j j !.j j j                                                                               C.!+~+  ",
"            {+]+- q ^+/+_ (+_+:+C <+[+}+|+F.1+2+3+4+c.5+6+9                                                                       7+8+P   ",
"                9+0+a+8+] _.b+=.c+-.] M d+e+^+9.b+] 8+f+g+h+i+j+j j j                                                             k+] l+  ",
"                        m+n+o+X p+q+r+s+          t+u+v+d+h.] w+x+y+z+A+B+j j                                                   j C+O D+  ",
"                                                            E+F+G+z - H+I+J+q+K+j 9 J J                                         s L+M+    ",
"                                                                    N+O+]+P+8.] S.Q+R+S+T+:+B+                                  ~.Y x.    ",
"                                                                            W.U+L.x+V+M.E W+X+V.Y+Z+j 9 j                       `+7. @    ",
"                                                                                        .@& ,+7.e +@m @@#@$@9 j j             J %@- b.    ",
"                                                                                                &@*@'.=@- +@a+-@;@>@8 !.B     B ,@Z       ",
"                                                                                                        '@+.v )@7.H.E !@z+~@{@]@- ^@      ",
"                                                                                                                /@^@(@_@+@N S.=@o+        ",
"                                                                                                                            l.r           "};
