/* XPM */
static char * mic_on_xpm[] = {
"69 33 594 2",
"  	c None",
". 	c #ABBE00",
"+ 	c #AEB600",
"@ 	c #B3AA00",
"# 	c #A3D100",
"$ 	c #BF9200",
"% 	c #D65800",
"& 	c #E72F00",
"* 	c #F60900",
"= 	c #FB0100",
"- 	c #FB0000",
"; 	c #F70700",
"> 	c #EF1D00",
", 	c #DF4500",
"' 	c #D26100",
") 	c #C18D00",
"! 	c #94F600",
"~ 	c #C97700",
"{ 	c #EE2000",
"] 	c #FC0000",
"^ 	c #F11600",
"/ 	c #D94F00",
"( 	c #BB9B00",
"_ 	c #AFB700",
": 	c #AEBA00",
"< 	c #B1B000",
"[ 	c #B9A200",
"} 	c #C58200",
"| 	c #E63400",
"1 	c #E23B00",
"2 	c #A7C700",
"3 	c #A3D200",
"4 	c #E43800",
"5 	c #DF4400",
"6 	c #B2AD00",
"7 	c #96EF00",
"8 	c #93F800",
"9 	c #93FC00",
"0 	c #93FA00",
"a 	c #93F600",
"b 	c #9CE600",
"c 	c #C38700",
"d 	c #F41200",
"e 	c #F80400",
"f 	c #CB7000",
"g 	c #9AE300",
"h 	c #A5CD00",
"i 	c #B1B100",
"j 	c #92FB00",
"k 	c #99EA00",
"l 	c #DF4200",
"m 	c #EB2500",
"n 	c #ABC000",
"o 	c #A3CF00",
"p 	c #EA2700",
"q 	c #F31100",
"r 	c #B0B300",
"s 	c #92FA00",
"t 	c #595959",
"u 	c #5A5A58",
"v 	c #555555",
"w 	c #585858",
"x 	c #656564",
"y 	c #666666",
"z 	c #5F5F62",
"A 	c #93F700",
"B 	c #B8A100",
"C 	c #E53300",
"D 	c #CC7000",
"E 	c #ADB700",
"F 	c #DC4700",
"G 	c #F90300",
"H 	c #A9C400",
"I 	c #93FB00",
"J 	c #5E5C5D",
"K 	c #5A5A5A",
"L 	c #545453",
"M 	c #5F5F5F",
"N 	c #4E4E4E",
"O 	c #515151",
"P 	c #5B5B58",
"Q 	c #79793E",
"R 	c #99EB00",
"S 	c #C28900",
"T 	c #F21700",
"U 	c #CD6B00",
"V 	c #A6C700",
"W 	c #C08C00",
"X 	c #CA7700",
"Y 	c #626363",
"Z 	c #626262",
"` 	c #5D5D5D",
" .	c #535353",
"..	c #4D4D4D",
"+.	c #4B4B4B",
"@.	c #4A4A4A",
"#.	c #545456",
"$.	c #5C5C4F",
"%.	c #84833D",
"&.	c #7A7935",
"*.	c #91FA00",
"=.	c #A7C600",
"-.	c #DE4400",
";.	c #F11800",
">.	c #FA0300",
",.	c #F60C00",
"'.	c #D45C00",
").	c #C18A00",
"!.	c #B5A600",
"~.	c #C87800",
"{.	c #A4CD00",
"].	c #6A6A6A",
"^.	c #5F6060",
"/.	c #4C4C4C",
"(.	c #545454",
"_.	c #484848",
":.	c #4F4F4F",
"<.	c #505050",
"[.	c #4B4B4E",
"}.	c #666547",
"|.	c #808037",
"1.	c #7B7A34",
"2.	c #98ED00",
"3.	c #ACBE00",
"4.	c #BE9100",
"5.	c #CE6A00",
"6.	c #F01A00",
"7.	c #F40F00",
"8.	c #CF6800",
"9.	c #C67B00",
"0.	c #BC9500",
"a.	c #D45B00",
"b.	c #F70B00",
"c.	c #97ED00",
"d.	c #606060",
"e.	c #565656",
"f.	c #525252",
"g.	c #434343",
"h.	c #3C3C3C",
"i.	c #494949",
"j.	c #434344",
"k.	c #4E4E50",
"l.	c #626139",
"m.	c #79782E",
"n.	c #7B7A31",
"o.	c #7C7B32",
"p.	c #77762F",
"q.	c #92F900",
"r.	c #9FDA00",
"s.	c #B4A800",
"t.	c #D95200",
"u.	c #EE1D00",
"v.	c #F90200",
"w.	c #EB2700",
"x.	c #D85100",
"y.	c #BD9400",
"z.	c #E23A00",
"A.	c #E73100",
"B.	c #94F800",
"C.	c #686868",
"D.	c #636363",
"E.	c #444444",
"F.	c #3D3D3D",
"G.	c #3F3F3F",
"H.	c #424242",
"I.	c #4B4B4C",
"J.	c #3A3A41",
"K.	c #62622D",
"L.	c #717124",
"M.	c #727227",
"N.	c #737328",
"O.	c #75752B",
"P.	c #77762C",
"Q.	c #76752C",
"R.	c #75742B",
"S.	c #71712A",
"T.	c #6F6E29",
"U.	c #97F000",
"V.	c #99E900",
"W.	c #A4D500",
"X.	c #B5A800",
"Y.	c #C97A00",
"Z.	c #E13F00",
"`.	c #F80700",
" +	c #F60D00",
".+	c #E72E00",
"++	c #D75800",
"@+	c #C48300",
"#+	c #B2A900",
"$+	c #F01B00",
"%+	c #C38800",
"&+	c #6B6C6B",
"*+	c #464646",
"=+	c #353535",
"-+	c #303030",
";+	c #3C3C3B",
">+	c #605F1C",
",+	c #6A691D",
"'+	c #6A691E",
")+	c #6B6A1F",
"!+	c #6D6C21",
"~+	c #6F6D23",
"{+	c #707025",
"]+	c #727226",
"^+	c #76752A",
"/+	c #78772D",
"(+	c #78772E",
"_+	c #6D6C27",
":+	c #95F400",
"<+	c #A6CC00",
"[+	c #D75500",
"}+	c #F50D00",
"|+	c #F90400",
"1+	c #F70A00",
"2+	c #DC4900",
"3+	c #B0B200",
"4+	c #ABBF00",
"5+	c #B1AF00",
"6+	c #616161",
"7+	c #5E5E5E",
"8+	c #383838",
"9+	c #313131",
"0+	c #3C3C37",
"a+	c #56551D",
"b+	c #616015",
"c+	c #616016",
"d+	c #646318",
"e+	c #656419",
"f+	c #67661A",
"g+	c #67661B",
"h+	c #69681D",
"i+	c #6C6B21",
"j+	c #706F24",
"k+	c #717026",
"l+	c #77762B",
"m+	c #74732B",
"n+	c #74732A",
"o+	c #6C6C27",
"p+	c #A0DB00",
"q+	c #BF9100",
"r+	c #D55D00",
"s+	c #E73000",
"t+	c #F50E00",
"u+	c #F70900",
"v+	c #ED1F00",
"w+	c #E13D00",
"x+	c #D06800",
"y+	c #C18900",
"z+	c #B6A800",
"A+	c #AFB400",
"B+	c #B8A200",
"C+	c #3A3A3A",
"D+	c #373737",
"E+	c #3D3D38",
"F+	c #4E4E17",
"G+	c #555511",
"H+	c #585713",
"I+	c #5A5813",
"J+	c #5C5B14",
"K+	c #5E5D15",
"L+	c #626216",
"M+	c #666418",
"N+	c #68671C",
"O+	c #6A691F",
"P+	c #6E6E22",
"Q+	c #706F25",
"R+	c #717126",
"S+	c #74742A",
"T+	c #75742A",
"U+	c #76762C",
"V+	c #76752D",
"W+	c #71702A",
"X+	c #9CE000",
"Y+	c #A3D000",
"Z+	c #AFB500",
"`+	c #BE9200",
" @	c #D65A00",
".@	c #F41100",
"+@	c #F51000",
"@@	c #EA2900",
"#@	c #DF4000",
"$@	c #CF6500",
"%@	c #BA9800",
"&@	c #E92B00",
"*@	c #D55A00",
"=@	c #5F5E5E",
"-@	c #3E3E3E",
";@	c #3B3B3B",
">@	c #343434",
",@	c #464626",
"'@	c #4B4A0F",
")@	c #4E4D11",
"!@	c #4F4F10",
"~@	c #525111",
"{@	c #545412",
"]@	c #555512",
"^@	c #585813",
"/@	c #5B5A12",
"(@	c #605F15",
"_@	c #646217",
":@	c #6C6B20",
"<@	c #6D6D22",
"[@	c #6F6E24",
"}@	c #707125",
"|@	c #747429",
"1@	c #76752B",
"2@	c #78782D",
"3@	c #76762E",
"4@	c #73722B",
"5@	c #6A6B25",
"6@	c #93F900",
"7@	c #94F500",
"8@	c #A1D900",
"9@	c #DE4700",
"0@	c #FA0600",
"a@	c #FA0200",
"b@	c #E43500",
"c@	c #C87900",
"d@	c #AFB300",
"e@	c #D65700",
"f@	c #F50C00",
"g@	c #97EF00",
"h@	c #5B5B5B",
"i@	c #474747",
"j@	c #4D4D3B",
"k@	c #505012",
"l@	c #4E4E11",
"m@	c #4D4C10",
"n@	c #4C4B10",
"o@	c #4C4B0F",
"p@	c #4D4D10",
"q@	c #4F4E11",
"r@	c #505011",
"s@	c #535312",
"t@	c #555412",
"u@	c #5A5A13",
"v@	c #5D5C14",
"w@	c #5F5E15",
"x@	c #636217",
"y@	c #66651A",
"z@	c #6C6B22",
"A@	c #737227",
"B@	c #757429",
"C@	c #6C6B27",
"D@	c #A3D300",
"E@	c #B7A700",
"F@	c #CA7400",
"G@	c #E83000",
"H@	c #F80600",
"I@	c #DA4C00",
"J@	c #A8C700",
"K@	c #C08E00",
"L@	c #676767",
"M@	c #646464",
"N@	c #5C5C5C",
"O@	c #4E4E51",
"P@	c #59591A",
"Q@	c #595912",
"R@	c #565613",
"S@	c #515011",
"T@	c #4F5011",
"U@	c #4C4C10",
"V@	c #504F11",
"W@	c #575612",
"X@	c #595913",
"Y@	c #5C5B13",
"Z@	c #5D5D14",
"`@	c #626116",
" #	c #6B6A1E",
".#	c #6E6D23",
"+#	c #6F6F24",
"@#	c #717025",
"##	c #747329",
"$#	c #75752A",
"%#	c #78772C",
"&#	c #6F6F27",
"*#	c #73732B",
"=#	c #C38600",
"-#	c #DB4D00",
";#	c #9BE200",
">#	c #E92C00",
",#	c #F31200",
"'#	c #6C6C6C",
")#	c #5B5C5C",
"!#	c #4D4D4C",
"~#	c #4F4F57",
"{#	c #505141",
"]#	c #656411",
"^#	c #606016",
"/#	c #5F5E14",
"(#	c #535211",
"_#	c #636216",
":#	c #656418",
"<#	c #69681E",
"[#	c #737329",
"}#	c #76762B",
"|#	c #77772C",
"1#	c #77742C",
"2#	c #6F6F2A",
"3#	c #ADBB00",
"4#	c #ABBD00",
"5#	c #E53600",
"6#	c #95F200",
"7#	c #4F5053",
"8#	c #565544",
"9#	c #666526",
"0#	c #69681C",
"a#	c #68671B",
"b#	c #646317",
"c#	c #5E5D14",
"d#	c #5B5B13",
"e#	c #565513",
"f#	c #545411",
"g#	c #515111",
"h#	c #4F4F11",
"i#	c #4C4A10",
"j#	c #4B4C0F",
"k#	c #525212",
"l#	c #595813",
"m#	c #646319",
"n#	c #6C6A20",
"o#	c #6D6B21",
"p#	c #727127",
"q#	c #737228",
"r#	c #77752C",
"s#	c #AAC300",
"t#	c #B89D00",
"u#	c #C77A00",
"v#	c #D16500",
"w#	c #97F200",
"x#	c #5D5C5D",
"y#	c #5A5B5A",
"z#	c #585857",
"A#	c #5E5E54",
"B#	c #6C6B41",
"C#	c #706F27",
"D#	c #70702A",
"E#	c #6B6A22",
"F#	c #68671E",
"G#	c #5F5E17",
"H#	c #626117",
"I#	c #5A5913",
"J#	c #575613",
"K#	c #535212",
"L#	c #4D4C11",
"M#	c #545311",
"N#	c #5A5A14",
"O#	c #5F5F15",
"P#	c #6F6E23",
"Q#	c #76742A",
"R#	c #B3AC00",
"S#	c #DE4600",
"T#	c #A1D500",
"U#	c #5D5C17",
"V#	c #605F17",
"W#	c #615F15",
"X#	c #616116",
"Y#	c #5B5A13",
"Z#	c #565512",
"`#	c #545312",
" $	c #4E4C10",
".$	c #504E11",
"+$	c #585612",
"@$	c #6A681D",
"#$	c #686720",
"$$	c #EC2500",
"%$	c #F40E00",
"&$	c #CA7500",
"*$	c #92FC00",
"=$	c #585714",
"-$	c #646218",
";$	c #575712",
">$	c #4B4B0F",
",$	c #515112",
"'$	c #5A5914",
")$	c #EF1C00",
"!$	c #DB4A00",
"~$	c #B4A900",
"{$	c #E23800",
"]$	c #D55C00",
"^$	c #C09000",
"/$	c #A1DA00",
"($	c #9BE900",
"_$	c #99EC00",
":$	c #A4D300",
"<$	c #B4AF00",
"[$	c #C77E00",
"}$	c #D26300",
"|$	c #EC2400",
"1$	c #DD4900",
"2$	c #C58000",
"3$	c #B1B500",
"4$	c #99ED00",
"5$	c #96F400",
"6$	c #605F18",
"7$	c #626118",
"8$	c #626217",
"9$	c #5B5A14",
"0$	c #595713",
"a$	c #4E4E10",
"b$	c #515010",
"c$	c #515211",
"d$	c #9DE300",
"e$	c #F90600",
"f$	c #C08B00",
"g$	c #D65600",
"h$	c #E63300",
"i$	c #F01900",
"j$	c #F11900",
"k$	c #E53400",
"l$	c #DC4A00",
"m$	c #EA2800",
"n$	c #D45A00",
"o$	c #C28A00",
"p$	c #B1B200",
"q$	c #9CE300",
"r$	c #525112",
"s$	c #4E4D10",
"t$	c #B5AB00",
"u$	c #C67A00",
"v$	c #C48200",
"w$	c #CB7100",
"x$	c #CD6C00",
"y$	c #CF6700",
"z$	c #C77D00",
"A$	c #B3A900",
"B$	c #ACBB00",
"C$	c #BF8D00",
"D$	c #CE6900",
"E$	c #D55900",
"F$	c #ED2000",
"G$	c #DF4300",
"H$	c #CB7300",
"I$	c #BB9900",
"J$	c #A5CE00",
"K$	c #94F400",
"L$	c #605F16",
"M$	c #4D4B10",
"N$	c #4C4D11",
"O$	c #CD6F00",
"P$	c #BF8B00",
"Q$	c #BF8F00",
"R$	c #C97500",
"S$	c #DB4B00",
"T$	c #F60A00",
"U$	c #F21900",
"V$	c #DA4E00",
"W$	c #A8CB00",
"X$	c #5F5E16",
"Y$	c #565612",
"Z$	c #E33900",
"`$	c #E82D00",
" %	c #B4A500",
".%	c #D65400",
"+%	c #F01C00",
"@%	c #DA4F00",
"#%	c #B8A300",
"$%	c #AAC200",
"%%	c #9EDF00",
"&%	c #585816",
"*%	c #636218",
"=%	c #5F5D14",
"-%	c #5B5B15",
";%	c #C97600",
">%	c #EB2600",
",%	c #E23E00",
"'%	c #D16700",
")%	c #B2AF00",
"!%	c #A5CC00",
"~%	c #9FDD00",
"{%	c #CD6E00",
"]%	c #B6A700",
"^%	c #F41000",
"/%	c #D35E00",
"(%	c #9DE100",
"_%	c #95F500",
":%	c #AEB900",
"<%	c #C38200",
"[%	c #D35C00",
"}%	c #F70800",
"|%	c #D26500",
"1%	c #BA9F00",
"2%	c #A7CE00",
"3%	c #DD4800",
"4%	c #B79F00",
"5%	c #ED2300",
"6%	c #DE4500",
"7%	c #ADBC00",
"8%	c #A6CD00",
"9%	c #D06500",
"0%	c #CA7200",
"a%	c #C47F00",
"b%	c #DA5000",
"c%	c #E43700",
"                      . + @                                                                                                               ",
"              # $ % & * = - ; * > , ' )                                                                                                   ",
"          ! ~ { ] ^ / ( _ : < [ } | * ] 1 2                                                                                               ",
"        3 4 - 5 6 7 8         9 0 a b c d e f g                                                                                           ",
"      h * * i j                       j k l ] m n                                                                                         ",
"    o p q r s       t u v w x y z         A B C - D E                                                                                     ",
"    F G H I     J K w L M w N w O P Q         R S ] T 1 U V                                                                               ",
"  W - X 0     Y Z `  ...O +.M @...#.$.%.&.      *.=.-.;.>.- ,.'.).!.                                                                      ",
"  ~.- {.    ].^.` w N /.+.(.N _.:.<.[.}.|.1.        j 2.3.4.5.1 6.] 7.-.8.9.0.                                                            ",
"  a.b.c.    d.d.e.f.f./.g.:.h.g.i.j.k.l.m.n.o.p.            j q.r.s.} t.u.G v.w.x.D y.                                                    ",
"  z.A.B.  C.D.d.e.N :.E...F.G.H.I.J.K.L.M.N.O.P.Q.R.S.T.              U.V.W.X.Y.Z.`.]  +.+++@+#+                                          ",
"  $+%+q.  &+D.w v O E.*+G.=+-+-+;+>+,+'+)+!+~+{+]+N.^+P./+(+_+              j j j :+<+[+w.}+|+e 1+2+3+4+                                  ",
"5+G <     6+7+v v @./._.h.8+9+0+a+b+c+d+e+f+g+h+'+i+!+j+k+M.l+Q.m+n+m+o+              *.9 p+4+q+r+s+t+u+v+w+x+y+z+                        ",
"A+= B+j   D.d.K O O i. .G.C+D+E+F+G+H+I+J+K+b+L+d+M+f+N+'+O+!+P+Q+R+N.S+T+R.U+V+W+              A X+Y+Z+`+ @.@] +@@@#@$@%@                ",
"  &@*@B.    =@v K <. .i.-@;@>@G.,@'@)@!@~@{@]@^@/@K+(@L+_@e+e+g+h+'+:@<@[@}@M.|@1@2@3@4@5@              9 6@7@8@y.9@6.0@= a@b@c@d@        ",
"  e@f@g@    D.h@(. ..._.i@H.E.j.j@k@l@m@n@o@p@q@r@s@t@H+u@v@w@c+x@d+y@g+N+'+:@z@P+Q+A@B@P.P.R.4@S.C@              j j D@E@F@G@+@] H@I@J@  ",
"  4.- K@0     L@M@N@<...@._./.i@O@P@Q@R@s@S@T@)@U@U@m@)@V@~@{@W@X@Y@Z@(@`@_@e+f+N+h+ #i+.#+#@###$#P.%#&#*#W+              *.9 Y+z+=#v.-#  ",
"  ;#>#,#U.      '#)#N ..N :.<.!#~#{#]#^#/#v@X@H+G+(#V@l@p@n@U@m@q@r@(#]@H+u@v@w@b+_#:#y@f+h+<#)+!+.#@#A@[#T+}#|#1#2#              j `+- 3#",
"    4#e 5#6#      K 7+w f.:.f.7#8#9#0#a#y@e+b#_#w@c#d#^@e#f#g#h#p@i#j#U@p@k@k#{@W@l#J+/#b+_#d+m#g+N+h+n#o#.#[@p#q###r#(+V+*#        s#v.t#",
"      u#] v#w#        x#y#z#A#B#C#D#E#F#      G#H#x@`@b+c+w@J+I#J#]@K#V@L#m@o@U@p@q@g#M#G+^@N#c#O#c+x@e+y@a#h+'+:@!+P#{+q#Q#%#    s R#`.  ",
"        u#] S#T#j                                       U#V#H#c+W#X#Z@Y#^@Z#`#r@l@p@U@n@m@ $.$(#t@+$I#v@c#(@_#d+e+y@N+@$)+i+~+#$  6@v#$$  ",
"          y.a@%$&$U.9 j j           *$j j j B.j j j               =$x@-$x@b+w@v@I+;$G+K#V@l@n@>$o@m@l@,${@e#H+'$K+(@b+_#e+e+y@    6@)$!$  ",
"            ~${$- q ]$^$_ /$($_$R :$<$[$}$9@|$1$2$3$p+4$5$9               6$7$H#8$`@(@v@9$0$R@s@,$!@U@o@n@m@a$b$c${@;$I#J+c#(@    d$e$'.  ",
"                f$g$h$e$] `.i$u.j$v.] ;.k$l$]$2+i$] e$m$n$o$p$q$j j j               G#7$H#H#(@K+J+I#;$t@r$V@s$U@n@n@)@q@~@`#]@    t$] u$  ",
"                        v$w$x$5.y$z$A$B$          C$D$E$k$u+] F$G$H$I$J$K$j j               L$V#c+`@c+(@c#Y#^@]@K#r@q@p@M$n@N$  j O$,.P$  ",
"                                                            Q$R$S$G - T$U$V$z$W$j 9 *.*.              X$V#x@x@c+c#Y#l#Y$s@~@!@  s Z$`$    ",
"                                                                     %.%{$+%1+] H@@%#%$%%%_$K$              &%*%d+_@_#b+=%-%    U.6.#@    ",
"                                                                            =#;%e@G$>%f@T ,%'%K@)%!%j 9 j                       ~%|+{%    ",
"                                                                                        ]%& %$|+e ^%m /%(%_%9 j j             *.:%- 5+    ",
"                                                                                                <%[%z.}%- ^%h$|%1%2%8 B.I     I 3%7.      ",
"                                                                                                        4%a.C 5%|+a@T 6%I$7%8%9%- 0%      ",
"                                                                                                                a%0%b%c%^%>.H@}%x$        ",
"                                                                                                                            y+r           "};
