/* XPM */
static char * note_xpm[] = {
"71 72 2 1",
" 	c None",
".	c #3E3E3E",
"                                                                       ",
"                 ......................................................",
"                 ......................................................",
"                 ......................................................",
"                 ......................................................",
"                 ......................................................",
"                 ......................................................",
"                 .......                                         ......",
"                 .......                                         ......",
"                 .......                                         ......",
"                 .......                                         ......",
"                 ......................................................",
"                 ......................................................",
"                 ......................................................",
"                 ......................................................",
"                 ......................................................",
"                 ......................................................",
"                 .......                                         ......",
"                 .......                                         ......",
"                 .......                                         ......",
"                 .......                                         ......",
"                 .......                                         ......",
"                 .......                                         ......",
"                 .......                                         ......",
"                 .......                                         ......",
"                 .......                                         ......",
"                 .......                                         ......",
"                 .......                                         ......",
"                 .......                                         ......",
"                 .......                                         ......",
"                 .......                                         ......",
"                 .......                                         ......",
"                 .......                                         ......",
"                 .......                                         ......",
"                 .......                                         ......",
"                 .......                                         ......",
"                 .......                                         ......",
"                 .......                                         ......",
"                 .......                                         ......",
"                 .......                                 ..............",
"                 .......                              .................",
"                 .......                             ..................",
"                 .......                           ....................",
"                 .......                          .....................",
"                 .......                          .....................",
"                 .......                         ......................",
"                 .......                         ......................",
"                 .......                        .......................",
"                 .......                        .......................",
"                 .......                        .......................",
"        ................                        .......................",
"      ..................                        ...................... ",
"    ....................                         ..................... ",
"   .....................                         ..................... ",
"  ......................                         ....................  ",
"  ......................                          ...................  ",
" .......................                           .................   ",
" .......................                           ................    ",
"........................                             .............     ",
".......................                                .........       ",
"......................                                                 ",
"......................                                                 ",
"......................                                                 ",
" .....................                                                 ",
" .....................                                                 ",
"  ...................                                                  ",
"  ...................                                                  ",
"   .................                                                   ",
"    ...............                                                    ",
"     ............                                                      ",
"       ........                                                        ",
"                                                                       "};
