/* XPM */
static char * pass_xpm[] = {
"24 14 2 1",
" 	c None",
".	c #3D3D3D",
"                        ",
"                        ",
"      ..        ..      ",
"     ...        ...     ",
"    ...          ...    ",
"   ....          ....   ",
"  ....................  ",
"  ....................  ",
"   ....          ....   ",
"    ...          ...    ",
"     ...        ...     ",
"      ..        ..      ",
"                        ",
"                        "};
