/* XPM */
static char * pbphone_xpm[] = {
"100 79 37 1",
" 	c None",
".	c #E32F2F",
"+	c #3D3D3D",
"@	c #3E3C3C",
"#	c #553A3A",
"$	c #483C3C",
"%	c #943535",
"&	c #DB2F2F",
"*	c #4B3B3B",
"=	c #973535",
"-	c #DC2F2F",
";	c #493B3B",
">	c #9A3535",
",	c #E12F2F",
"'	c #4D3B3B",
")	c #9C3434",
"!	c #DD2F2F",
"~	c #4F3B3B",
"{	c #9D3434",
"]	c #DE2F2F",
"^	c #503B3B",
"/	c #9F3434",
"(	c #DF2F2F",
"_	c #513B3B",
":	c #A13434",
"<	c #A33434",
"[	c #443C3C",
"}	c #413C3C",
"|	c #433C3C",
"1	c #3D3C3C",
"2	c #463C3C",
"3	c #643939",
"4	c #AF3333",
"5	c #663939",
"6	c #B93232",
"7	c #633939",
"8	c #B43232",
"                                                                                                    ",
"                                      ........................                                      ",
"                             ..........................................                             ",
"                       ......................................................                       ",
"          ++       ..............................................................                   ",
"          ++@# ......................................................................               ",
"          ++++$%&........................................................................           ",
"         .++++++*=-........................................................................         ",
"       ...++++++++;>,........................................................................       ",
"      ....++++++++++')!.......................................................................      ",
"      ....++++++++++++~{].....................................................................      ",
"     .....++++++++++++++^/(..................          ........................................     ",
"     .....++++++++++++++++_:(........                          ................................     ",
"    ......++++++++++++++++++^<..                                    ...........................     ",
"    ......++++++++++++++++++++[                                       ..........................    ",
"    ......+++++++++++++++++++++++                                      .........................    ",
"   .......+++++++++++++++++++++++++                                     .........................   ",
"   .......+++++++++++++++++++++++++++                                    ........................   ",
"   .......+++++++++++++++++++++++++++++                                   .......................   ",
"  ........++++++++++++++++++++++++++++++}                                 .......................   ",
"  ........++++++++++++++++++++++++++++++++|                ..........     ........................  ",
"  ........+++++++++++++++++++++++++++++++++++             ...........      .......................  ",
"  ........+++++++++++++++++++++++++++++++++++++           ...........         ....................  ",
"  ........+++++++++++++++++++++++++++++++++++++++         ...........            .................  ",
"    ......+++++++++++++++++++++++++++++++++++++++         ...........                 .......       ",
"          ++++++++++++++++++++++++++++++++++++1           ...........     ....                      ",
"          ++++++++++++++++++++++++++++++++++2             ...........     ......                    ",
"  ...     ++++++++++++++++++++++++++++++++34.........................     ...........        .....  ",
" .........++++++++++++++++++++++++++++++56...........................     ........................  ",
" .........++++++++++++++++++++++++++++56..............................    ........................  ",
"  ........++++++++++++++++++++++++++56................................     .......................  ",
"  ........++++++++++++++++++++++++56...................................    .......................  ",
"  ........++++++++++++++++++++++56.....................................     ......................  ",
"  ........++++++++++++++++++++56........................................     ....................   ",
"   .......++++++++++++++++++76..........................................      ...................   ",
"    ......++++++++++++++++$8.......       ....       ....       .........        ..............     ",
"       ...+++++++++++++++ .........       ....       ....       ..........                          ",
"          +++++++++++++   .........       ....       ....       ..........                          ",
"          +++++++++++    ..........       ....       ....       ...........                         ",
"          +++++++++     ....................................................                        ",
"          +++++++       ....................................................                        ",
"          +++++        ......................................................                       ",
"          +++          .............      .....      .....      ..............                      ",
"          +           .............       ....       ....       ..............                      ",
"                     ..............       ....       ....       ...............                     ",
"                     ..............       ....       ....       ...............                     ",
"                    ................      ....       ....       ................                    ",
"                    .............................................................                   ",
"                   ..............................................................                   ",
"                  ................................................................                  ",
"                  ..................      ....       ....       ..................                  ",
"                 ..................       ....       ....       ...................                 ",
"                ...................       ....       ....       ....................                ",
"                ...................       ....       ....       ....................                ",
"               .....................      .....     ......     ......................               ",
"               ......................................................................               ",
"              ........................................................................              ",
"              ........................................................................              ",
"              .........................................................................             ",
"             ..........................................................................             ",
"             ..........................................................................             ",
"             ..........................................................................             ",
"             ..........................................................................             ",
"             ..........................................................................             ",
"            ...........................................................................             ",
"            ...........................................................................             ",
"            ...........................................................................             ",
"            ...........................................................................             ",
"            ...........................................................................             ",
"            ...........................................................................             ",
"            ...........................................................................             ",
"            ...........................................................................             ",
"            ...........................................................................             ",
"            ...........................................................................             ",
"            ...........................................................................             ",
"            ...........................................................................             ",
"            ...........................................................................             ",
"            ...........................................................................             ",
"                                                                                                    "};
