/* XPM */
static char * play3_xpm[] = {
"100 100 2 1",
" 	c None",
".	c #E72828",
"...                                                                                                 ",
".....                                                                                               ",
".......                                                                                             ",
".........                                                                                           ",
"...........                                                                                         ",
".............                                                                                       ",
"...............                                                                                     ",
".................                                                                                   ",
"...................                                                                                 ",
".....................                                                                               ",
".......................                                                                             ",
".........................                                                                           ",
"...........................                                                                         ",
".............................                                                                       ",
"...............................                                                                     ",
".................................                                                                   ",
"...................................                                                                 ",
".....................................                                                               ",
".......................................                                                             ",
".........................................                                                           ",
"...........................................                                                         ",
".............................................                                                       ",
"...............................................                                                     ",
".................................................                                                   ",
"...................................................                                                 ",
"....................................................                                                ",
"......................................................                                              ",
"........................................................                                            ",
"..........................................................                                          ",
"............................................................                                        ",
"..............................................................                                      ",
"................................................................                                    ",
"..................................................................                                  ",
"....................................................................                                ",
"......................................................................                              ",
"........................................................................                            ",
"..........................................................................                          ",
"............................................................................                        ",
"..............................................................................                      ",
"................................................................................                    ",
"..................................................................................                  ",
"....................................................................................                ",
"......................................................................................              ",
"........................................................................................            ",
"..........................................................................................          ",
"............................................................................................        ",
"..............................................................................................      ",
"................................................................................................    ",
"..................................................................................................  ",
"....................................................................................................",
"....................................................................................................",
"................................................................................................... ",
".................................................................................................   ",
"...............................................................................................     ",
".............................................................................................       ",
"...........................................................................................         ",
".........................................................................................           ",
".......................................................................................             ",
".....................................................................................               ",
"...................................................................................                 ",
".................................................................................                   ",
"...............................................................................                     ",
".............................................................................                       ",
"...........................................................................                         ",
".........................................................................                           ",
".......................................................................                             ",
".....................................................................                               ",
"..................................................................                                  ",
"................................................................                                    ",
"..............................................................                                      ",
"............................................................                                        ",
"..........................................................                                          ",
"........................................................                                            ",
"......................................................                                              ",
"....................................................                                                ",
"..................................................                                                  ",
"................................................                                                    ",
"..............................................                                                      ",
"............................................                                                        ",
"..........................................                                                          ",
"........................................                                                            ",
"......................................                                                              ",
"....................................                                                                ",
"..................................                                                                  ",
"................................                                                                    ",
"..............................                                                                      ",
"............................                                                                        ",
"..........................                                                                          ",
"........................                                                                            ",
"......................                                                                              ",
"....................                                                                                ",
"..................                                                                                  ",
"................                                                                                    ",
"..............                                                                                      ",
"............                                                                                        ",
"..........                                                                                          ",
"........                                                                                            ",
"......                                                                                              ",
"....                                                                                                ",
"..                                                                                                  "};
