/* XPM */
static char * prev_xpm[] = {
"14 14 2 1",
" 	c None",
".	c #3D3D3D",
"      .      .",
"     ..     ..",
"    ...    ...",
"   ....   ....",
"  .....  .....",
" ...... ......",
"..............",
"..............",
" ...... ......",
"  .....  .....",
"   ....   ....",
"    ...    ...",
"     ..     ..",
"      .      ."};
