/* XPM */
static char * stopbutton_xpm[] = {
"56 56 2 1",
" 	c None",
".	c #E72828",
"                        ........                        ",
"                   ..................                   ",
"                 ......................                 ",
"               ..........................               ",
"             ..............................             ",
"            ................................            ",
"          ....................................          ",
"         ......................................         ",
"        ........................................        ",
"       ..........................................       ",
"      ............................................      ",
"      ............................................      ",
"     ..............................................     ",
"    ................................................    ",
"    ................................................    ",
"   ..................................................   ",
"   ..................................................   ",
"  ....................................................  ",
"  ....................................................  ",
" ...................................................... ",
" ...................................................... ",
" ...................................................... ",
" ...................................................... ",
" ...................................................... ",
"........................................................",
"........................................................",
"........................................................",
"........................................................",
"........................................................",
"........................................................",
"........................................................",
"........................................................",
" ...................................................... ",
" ...................................................... ",
" ...................................................... ",
" ...................................................... ",
" ...................................................... ",
"  ....................................................  ",
"  ....................................................  ",
"   ..................................................   ",
"   ..................................................   ",
"    ................................................    ",
"    ................................................    ",
"     ..............................................     ",
"      ............................................      ",
"      ............................................      ",
"       ..........................................       ",
"        ........................................        ",
"         ......................................         ",
"          ....................................          ",
"            ................................            ",
"             ..............................             ",
"               ..........................               ",
"                 ......................                 ",
"                   ..................                   ",
"                        ........                        "};
