/* XPM */
static char * redphone_xpm[] = {
"100 79 136 2",
"  	c None",
". 	c #E54747",
"+ 	c #E54848",
"@ 	c #E54545",
"# 	c #E54444",
"$ 	c #E44343",
"% 	c #E44242",
"& 	c #E44444",
"* 	c #E54646",
"= 	c #E54949",
"- 	c #E44848",
"; 	c #E44949",
"> 	c #E44747",
", 	c #E44646",
"' 	c #E34343",
") 	c #E34242",
"! 	c #E34141",
"~ 	c #E34040",
"{ 	c #E33F3F",
"] 	c #E43F3F",
"^ 	c #E44040",
"/ 	c #E44545",
"( 	c #E33E3E",
"_ 	c #E33D3D",
": 	c #E33C3C",
"< 	c #E23C3C",
"[ 	c #E24040",
"} 	c #E23F3F",
"| 	c #E23E3E",
"1 	c #E23D3D",
"2 	c #E13C3C",
"3 	c #E13B3B",
"4 	c #E13A3A",
"5 	c #E13939",
"6 	c #E13838",
"7 	c #E13737",
"8 	c #E24141",
"9 	c #E03B3B",
"0 	c #E03A3A",
"a 	c #E03939",
"b 	c #E03838",
"c 	c #E03737",
"d 	c #E03636",
"e 	c #E03535",
"f 	c #DF3434",
"g 	c #DF3333",
"h 	c #E13D3D",
"i 	c #DF3939",
"j 	c #DF3838",
"k 	c #DF3737",
"l 	c #DF3636",
"m 	c #DF3535",
"n 	c #DE3434",
"o 	c #DE3333",
"p 	c #DF3232",
"q 	c #DF3131",
"r 	c #E44141",
"s 	c #DF3A3A",
"t 	c #DE3636",
"u 	c #DE3535",
"v 	c #DD3434",
"w 	c #DE3232",
"x 	c #DE3131",
"y 	c #DF3030",
"z 	c #DF2F2F",
"A 	c #E02F2F",
"B 	c #E03030",
"C 	c #DE3737",
"D 	c #DD3333",
"E 	c #DD3232",
"F 	c #DE3030",
"G 	c #E12F2F",
"H 	c #E23939",
"I 	c #E23838",
"J 	c #DC3333",
"K 	c #DC3232",
"L 	c #DC3131",
"M 	c #DD3131",
"N 	c #DD3030",
"O 	c #DE2F2F",
"P 	c #E23A3A",
"Q 	c #E33838",
"R 	c #E13535",
"S 	c #E13636",
"T 	c #DC3030",
"U 	c #DD2F2F",
"V 	c #E13232",
"W 	c #E13333",
"X 	c #E03333",
"Y 	c #DB3131",
"Z 	c #DB3030",
"` 	c #DB2F2F",
" .	c #DC2F2F",
"..	c #E22F2F",
"+.	c #E23636",
"@.	c #E13131",
"#.	c #E03131",
"$.	c #E13030",
"%.	c #E23030",
"&.	c #E32F2F",
"*.	c #E13434",
"=.	c #DE3838",
"-.	c #DE3939",
";.	c #DD3636",
">.	c #DC3636",
",.	c #DD3535",
"'.	c #DD3737",
").	c #DD3838",
"!.	c #DB3636",
"~.	c #DC3535",
"{.	c #DF3B3B",
"].	c #DA3737",
"^.	c #D93737",
"/.	c #DA3636",
"(.	c #DB3737",
"_.	c #DC3737",
":.	c #D93636",
"<.	c #D83737",
"[.	c #DB3939",
"}.	c #DC3838",
"|.	c #DA3939",
"1.	c #DA3838",
"2.	c #D93838",
"3.	c #D93C3C",
"4.	c #D93939",
"5.	c #D93A3A",
"6.	c #DB3838",
"7.	c #D93B3B",
"8.	c #DA3C3C",
"9.	c #DB3C3C",
"0.	c #E33131",
"a.	c #E33030",
"b.	c #E22E2E",
"c.	c #E12E2E",
"d.	c #DF2E2E",
"e.	c #E02E2E",
"                                                                                                                                                                                                        ",
"                                                                            . + + + @ # $ $ $ % % % % $ $ & @ * + = = = + +                                                                             ",
"                                                          . - ; > , & & ' ) ! ! ~ ~ ~ { ] { { { { { { ~ ~ ~ ^ ! ! ! ) ) ' ' ' $ & / , - ; - +                                                           ",
"                                              + - ; ; , & $ ) ! ~ ~ { { ( _ _ : : : < < < < < < < < < : : _ _ ( ( ( { { { { { { ~ ~ ~ ~ ~ ! ) ' , ; ; - .                                               ",
"                                      - ; , / & ' ) ) ! ~ [ } | 1 < 2 3 3 4 4 5 5 6 6 6 6 6 7 7 6 6 6 6 5 5 4 4 3 3 3 2 2 2 2 2 2 2 < < 1 1 | { ~ ! ) ' & & > - ;                                       ",
"                              + - > / & ' ) ! 8 [ [ } | 1 < 2 9 0 a b c c c d d d e e e e e e e e e e e d d c c c c c c b b b b b b b a a 0 3 2 1 | } [ [ ! ) ) ) ) & > +                               ",
"                      + - ; , & ' ) 8 [ [ } | | 2 2 2 0 a b b c c d e e f g g g g g g g g g g g g g g g g g g f f f e e e e e e e e d d d c c b a 9 2 2 1 | } } [ [ ~ ~ ~ ! ' / +                       ",
"                - - , ' ' ' ) 8 [ [ | h 2 2 9 0 i j k k l l m n o o g g p p p q q q q q q q q q q q q q q q p p p p g g g g g g g g o o o n m l k k j i 0 9 2 2 2 < 1 1 1 ( ( ( ( ) ;                   ",
"              r ~ ~ ~ [ [ [ } | h 2 9 s i j k k l t u v o o o w w x q q y y y y y y z z z A A A A A A B B B B B B y y q q q q q q q q x w w o o o v u l k k j j i a 0 0 9 3 2 2 < : _ _ $               ",
"            ) < : 1 1 1 2 2 2 9 i j k C t u u v D D D E E x x F y y z z A A A A A A A A A A A G G G G G G G A A A A A A A A A A A y y y y F x x E D D D v v u u t l k k c b b a 4 3 2 < < &             ",
"            H I 5 5 0 a i j j k C t u v J J J K K L M N N F O z z A A A A G G G G G G G G G G G G G G G G G G G G G G G G G G G A A A A z z O F N M L L K K J J D D D v n m l k c b 5 5 P <             ",
"          Q R S S c k l l t u v J J J K L L L T T T U U O O z A A A G G G G G G G G G G G G                   G G G G G G G G G G G G A A A z O U U T T T T L L L L K K D D D o n m d 7 7 I ^           ",
"          V W X g o o D D J J K K Y Y Z Z Z `  . .U U O z z A A G G G G ..                                                    ....G G G G A A z O U U  . .` ` Z Z Z Z T L L L E D o o f e R +.          ",
"        @.@.#.q q w E K L L L Z Z Z ` ` ` ` `  . .U O z z A G G                                                                       ..G G A A z O O U  . .` ` ` ` ` ` ` Z T T L M w p X X W           ",
"        G G B y F N N T T Z ` ` ` ` ` ` ` `  . .U O z A A A                                                                                 G G A z O U U  . .` ` ` ` ` ` ` `  . .N N F q #.@.V         ",
"        G G A z O U  . . .` ` ` ` ` ` ` `  . .U O z A A                                                                                       G A A z O U U  . .` ` ` ` ` ` ` `  . .U O z B $.$.        ",
"      G G A z O O U  . . . . . .` ` `  . . .U O z A A                                                                                           G A A z O U U  . . .` ` ` ` ` `  . .U O z z A G %.      ",
"      G G A z O O U U U  . . . . . . .U U U O z A A G                                                                                             G A A z O O U U  . . . .`  . . . .U O O z A G G       ",
"      G G A z z O O U U U U U U U U U U O O z z A G                                                                                               G G A A z z O O U U  . . . . . .U U O O z A G G       ",
"    ..G G A z z z O O O O O O O O O O O z z A A G G                                                                                                 G G A A z z z O O U U U U U U U O O z z A G G ..    ",
"    ..G G A A z z z z z z z z z z z z z z A A G G ..          &.&.&.&.&.&.&.&.&.&.&.                                  &.&.&.&.&.&.&.&.&.&.          ..G G G A A A z z O O O O O O O O O z A A G G ..    ",
"    ..G G G A A A A A A A A A A A A A A A G G G               &.&.&.&.&.&.&.&.&.&.&.                                &.&.&.&.&.&.&.&.&.&.&.            G G G G G A A A z z z z z z z z z z A A G G ..    ",
"    ....G G G G G G G G G G G G G G G G G G                   &.&.&.&.&.&.&.&.&.&.&.                                &.&.&.&.&.&.&.&.&.&.&.                  ..G G G A A A A A A A A A A A G G G ....    ",
"    W ......G G G G G G G G G G G G G G                       &.&.&.&.&.&.&.&.&.&.&.                                &.&.&.&.&.&.&.&.&.&.&.                        G G G G G G G G G G G G G G G ....    ",
"        ........................                              &.&.&.&.&.&.&.&.&.&.&.                                &.&.&.&.&.&.&.&.&.&.&.          6                       G G G G G G G               ",
"                                              5 S R           &.&.&.&.&.&.&.&.&.&.&.                                &.&.&.&.&.&.&.&.&.&.&.          *.S b a                                             ",
"                                          a d e *.R           &.&.&.&.&.&.&.&.&.&.&.                                &.&.&.&.&.&.&.&.&.&.&.          R e e e l j                                         ",
"  5 R d i                         a c d d l l d e c           &.&.&.&.&.&.&.&.&.&.&.&.&.&.&.&.&.&.&.&.&.&.&.&.&.&.&.&.&.&.&.&.&.&.&.&.&.&.          m l t t t u u u C C =.-.              0 a c R R     ",
"  a e m m u m l l l l l l l l d t t t t C C C t m b           &.&.&.&.&.&.&.&.&.&.&.&.&.&.&.&.&.&.&.&.&.&.&.&.&.&.&.&.&.&.&.&.&.&.&.&.&.&.          l t ;.;.>.;.;.,.,.,.,.u u u t t t l l l l l m e     ",
"  0 m t t ;.;.;.;.;.;.;.;.;.;.;.;.;.'.'.;.;.'.t m -.          &.&.&.&.&.&.&.&.&.&.&.&.&.&.&.&.&.&.&.&.&.&.&.&.&.&.&.&.&.&.&.&.&.&.&.&.&.&.&.        ).u >.!.!.!.!.!.!.!.~.~.;.;.;.;.;.;.;.C C t l l     ",
"  {.l t ;.;.>.>.>.>.>.>.>.>.>.>.>.>.>.>.>.>.;.u m           &.&.&.&.&.&.&.&.&.&.&.&.&.&.&.&.&.&.&.&.&.&.&.&.&.&.&.&.&.&.&.&.&.&.&.&.&.&.&.&.          ,.,.>.].^.^.^./././././.!.!.!.!.(.(.(._.>.;.l     ",
"    t ;.>.!.>.!.!.!.!.!.!.!.!.!.>.!.!.!.!.!.,.u ).          &.&.&.&.&.&.&.&.&.&.&.&.&.&.&.&.&.&.&.&.&.&.&.&.&.&.&.&.&.&.&.&.&.&.&.&.&.&.&.&.&.        _.>.!.].].^.^.:.:.:.:.^.^.].!.!.!.!.!.(.>.;.'.    ",
"    '.;.>.!.!./././././././././.!.!.!.!.!.~.,.,.          &.&.&.&.&.&.&.&.&.&.&.&.&.&.&.&.&.&.&.&.&.&.&.&.&.&.&.&.&.&.&.&.&.&.&.&.&.&.&.&.&.&.          (.>.(.].^.^.<.<.^.^.^.^.].].].].].].].(.>.[.    ",
"    }.;.(.(.!.!.!./././././.!.!.!.!.!.>.~.,.;.          ..&.&.&.&.&.&.&.&.&.&.&.&.&.&.&.&.&.&.&.&.&.&.&.&.&.&.&.&.&.&.&.&.&.&.&.&.&.&.&.&.&.&...          |.!.!.1.1.1.2.2.2.^.^.^.^.].].].(.(.!.;.      ",
"      (.>.>.(.(.(.].].].].].(.(.(.(.>.>.>.}.            ..&.&.&.&.&.&.&.&.&.&.&.&.&.&.&.&.&.&.&.&.&.&.&.&.&.&.&.&.&.&.&.&.&.&.&.&.&.&.&.&.&.&...G           3.4.1.].].].2.2.1.1.1.1.1.].].!.!.!.5.      ",
"        [.;.;.>.>.>.>.>.>.>.>.>._._.'.6.              ..&.&.&.&.&.&.&.              &.&.&.&.              &.&.&.&.              &.&.&.&.&.&.&.....                7.6.1.1.6.(.(.(.(.(.(.6.6.4.          ",
"              8.[.6._.'._.}.6.9.                    ....&.&.&.&.&.&.&.              &.&.&.&.              &.&.&.&.              &.&.&.&.&.&.&.&.....                                                    ",
"                                                    ..&.&.&.&.&.&.&.&.              &.&.&.&.              &.&.&.&.              &.&.&.&.&.&.&.&.....$.                                                  ",
"                                                  ....&.&.&.&.&.&.&.&.              &.&.&.&.              &.&.&.&.              &.&.&.&.&.&.&.&.&.....                                                  ",
"                                                ....&.&.&.&.&.&.&.&.&.&.&.&.&.&.&.&.&.&.&.&.&.&.&.&.&.&.&.&.&.&.&.&.&.&.&.&.&.&.&.&.&.&.&.&.&.&.&.&.....                                                ",
"                                                &.&.&.&.&.&.&.&.&.&.&.&.&.&.&.&.&.&.&.&.&.&.&.&.&.&.&.&.&.&.&.&.&.&.&.&.&.&.&.&.&.&.&.&.&.&.&.&.&.&.&.&.                                                ",
"                                              &.&.&.&.&.&.&.&.&.&.&.&.&.&.&.&.&.&.&.&.&.&.&.&.&.&.&.&.&.&.&.&.&.&.&.&.&.&.&.&.&.&.&.&.&.&.&.&.&.&.&.&.&.&.                                              ",
"                                              0.&.&.&.&.&.&.&.&.&.&.&.&.            &.&.&.&.&.          &.&.&.&.&.&.            &.&.&.&.&.&.&.&.&.&.&.&.&.&.                                            ",
"                                            0.&.&.&.&.&.&.&.&.&.&.&.&.              &.&.&.&.              &.&.&.&.              &.&.&.&.&.&.&.&.&.&.&.&.&.&.                                            ",
"                                          a.&.&.&.&.&.&.&.&.&.&.&.&.&.              &.&.&.&.              &.&.&.&.              &.&.&.&.&.&.&.&.&.&.&.&.&.&.&.                                          ",
"                                          &.&.&.&.&.&.&.&.&.&.&.&.&.&.              &.&.&.&.              &.&.&.&.              &.&.&.&.&.&.&.&.&.&.&.&.&.&.&.                                          ",
"                                        &.&.&.&.&.&.&.&.&.&.&.&.&.&.&.&.            &.&.&.&.              &.&.&.&.              &.&.&.&.&.&.&.&.&.&.&.&.&.&.&.&.                                        ",
"                                      &.&.&.&.&.&.&.&.&.&.&.&.&.&.&.&.&.&.&.&.&.&.&.&.&.&.&.&.&.&.&.&.&.&.&.&.&.&.&.&.&.&.&.&.&.&.&.&.&.&.&.&.&.&.&.&.&.&.&.&.&.&.                                      ",
"                                      &.&.&.&.&.&.&.&.&.&.&.&.&.&.&.&.&.&.&.&.&.&.&.&.&.&.&.&.&.&.&.&.&.&.&.&.&.&.&.&.&.&.&.&.&.&.&.&.&.&.&.&.&.&.&.&.&.&.&.&.&.&.                                      ",
"                                    &.&.&.&.&.&.&.&.&.&.&.&.&.&.&.&.&.&.&.&.&.&.&.&.&.&.&.&.&.&.&.&.&.&.&.&.&.&.&.&.&.&.&.&.&.&.&.&.&.&.&.&.&.&.&.&.&.&.&.&.&.&.&.&.                                    ",
"                                    &.&.&.&.&.&.&.&.&.&.&.&.&.&.&.&.&.&.            &.&.&.&.              &.&.&.&.              &.&.&.&.&.&.&.&.&.&.&.&.&.&.&.&.&.&.                                    ",
"                                  &.&.&.&.&.&.&.&.&.&.&.&.&.&.&.&.&.&.              &.&.&.&.              &.&.&.&.              &.&.&.&.&.&.&.&.&.&.&.&.&.&.&.&.&.&.&.                                  ",
"                                &.&.&.&.&.&.&.&.&.&.&.&.&.&.&.&.&.&.&.              &.&.&.&.              &.&.&.&.              &.&.&.&.&.&.&.&.&.&.&.&.&.&.&.&.&.&.&.&.                                ",
"                                &.&.&.&.&.&.&.&.&.&.&.&.&.&.&.&.&.&.&.              &.&.&.&.              &.&.&.&.              &.&.&.&.&.&.&.&.&.&.&.&.&.&.&.&.&.&.&.&.                                ",
"                              &.&.&.&.&.&.&.&.&.&.&.&.&.&.&.&.&.&.&.&.&.            &.&.&.&.&.          &.&.&.&.&.&.          &.&.&.&.&.&.&.&.&.&.&.&.&.&.&.&.&.&.&.&.&.&.                              ",
"                              &.&.&.&.&.&.&.&.&.&.&.&.&.&.&.&.&.&.&.&.&.&.&.&.&.&.&.&.&.&.&.&.&.&.&.&.&.&.&.&.&.&.&.&.&.&.&.&.&.&.&.&.&.&.&.&.&.&.&.&.&.&.&.&.&.&.&.&.&.&.                              ",
"                            &.&.&.&.&.&.&.&.&.&.&.&.&.&.&.&.&.&.&.&.&.&.&.&.&.&.&.&.&.&.&.&.&.&.&.&.&.&.&.&.&.&.&.&.&.&.&.&.&.&.&.&.&.&.&.&.&.&.&.&.&.&.&.&.&.&.&.&.&.&.&.&.                            ",
"                            &.&.&.&.&.&.&.&.&.&.&.&.&.&.&.&.&.&.&.&.&.&.&.&.&.&.&.&.&.&.&.&.&.&.&.&.&.&.&.&.&.&.&.&.&.&.&.&.&.&.&.&.&.&.&.&.&.&.&.&.&.&.&.&.&.&.&.&.&.&.&.&.                            ",
"                            b.b.b.b.b.b.b.b.b.b.b.b.b.b.b.b.b.b.b.b.b.b.b.b.b.b.b.b.b.b.b.b.b.b.b.b.b.b.b.b.b.b.b.b.b.b.b.b.b.b.b.b.b.b.b.b.b.b.b.b.b.b.b.b.b.b.b.b.b.b.b.b.b.                          ",
"                          c.b.b.b.b.b.b.b.b.b.b.b.b.b.b.b.b.b.b.b.b.b.b.b.b.b.b.b.b.b.b.b.b.b.b.b.b.b.b.b.b.b.b.b.b.b.b.b.b.b.b.b.b.b.b.b.b.b.b.b.b.b.b.b.b.b.b.b.b.b.b.b.b.c.                          ",
"                          d.e.e.e.e.e.e.e.e.e.e.e.e.e.e.e.e.e.e.e.e.e.e.e.e.e.e.e.e.e.e.e.e.e.e.e.e.e.e.e.e.e.e.e.e.e.e.e.e.e.e.e.e.e.e.e.e.e.e.e.e.e.e.e.e.e.e.e.e.e.e.e.e.e.                          ",
"                          d.e.e.e.e.e.e.e.e.e.e.e.e.e.e.e.e.e.e.e.e.e.e.e.e.e.e.e.e.e.e.e.e.e.e.e.e.e.e.e.e.e.e.e.e.e.e.e.e.e.e.e.e.e.e.e.e.e.e.e.e.e.e.e.e.e.e.e.e.e.e.e.e.d.                          ",
"                          e.d.d.d.d.d.d.d.d.d.d.d.d.d.d.d.d.d.d.d.d.d.d.d.d.d.d.d.d.d.d.d.d.d.d.d.d.d.d.d.d.d.d.d.d.d.d.d.d.d.d.d.d.d.d.d.d.d.d.d.d.d.d.d.d.d.d.d.d.d.d.d.d.d.                          ",
"                          d.d.d.d.d.d.d.d.d.d.d.d.d.d.d.d.d.d.d.d.d.d.d.d.d.d.d.d.d.d.d.d.d.d.d.d.d.d.d.d.d.d.d.d.d.d.d.d.d.d.d.d.d.d.d.d.d.d.d.d.d.d.d.d.d.d.d.d.d.d.d.d.d.e.                          ",
"                        d.d.d.d.d.d.d.d.d.d.d.d.d.d.d.d.d.d.d.d.d.d.d.d.d.d.d.d.d.d.d.d.d.d.d.d.d.d.d.d.d.d.d.d.d.d.d.d.d.d.d.d.d.d.d.d.d.d.d.d.d.d.d.d.d.d.d.d.d.d.d.d.d.d.d.                          ",
"                        e.d.d.d.d.d.d.d.d.d.d.d.d.d.d.d.d.d.d.d.d.d.d.d.d.d.d.d.d.d.d.d.d.d.d.d.d.d.d.d.d.d.d.d.d.d.d.d.d.d.d.d.d.d.d.d.d.d.d.d.d.d.d.d.d.d.d.d.d.d.d.d.d.d.d.                          ",
"                        e.d.d.d.d.d.d.d.d.d.d.d.d.d.d.d.d.d.d.d.d.d.d.d.d.d.d.d.d.d.d.d.d.d.d.d.d.d.d.d.d.d.d.d.d.d.d.d.d.d.d.d.d.d.d.d.d.d.d.d.d.d.d.d.d.d.d.d.d.d.d.d.d.d.d.                          ",
"                        e.d.d.d.d.d.d.d.d.d.d.d.d.d.d.d.d.d.d.d.d.d.d.d.d.d.d.d.d.d.d.d.d.d.d.d.d.d.d.d.d.d.d.d.d.d.d.d.d.d.d.d.d.d.d.d.d.d.d.d.d.d.d.d.d.d.d.d.d.d.d.d.d.d.d.                          ",
"                        d.d.d.d.d.d.d.d.d.d.d.d.d.d.d.d.d.d.d.d.d.d.d.d.d.d.d.d.d.d.d.d.d.d.d.d.d.d.d.d.d.d.d.d.d.d.d.d.d.d.d.d.d.d.d.d.d.d.d.d.d.d.d.d.d.d.d.d.d.d.d.d.d.d.d.                          ",
"                        d.d.d.d.d.d.d.d.d.d.d.d.d.d.d.d.d.d.d.d.d.d.d.d.d.d.d.d.d.d.d.d.d.d.d.d.d.d.d.d.d.d.d.d.d.d.d.d.d.d.d.d.d.d.d.d.d.d.d.d.d.d.d.d.d.d.d.d.d.d.d.d.d.d.d.                          ",
"                        d.d.d.d.d.d.d.d.d.d.d.d.d.d.d.d.d.d.d.d.d.d.d.d.d.d.d.d.d.d.d.d.d.d.d.d.d.d.d.d.d.d.d.d.d.d.d.d.d.d.d.d.d.d.d.d.d.d.d.d.d.d.d.d.d.d.d.d.d.d.d.d.d.d.d.                          ",
"                        d.d.d.d.d.d.d.d.d.d.d.d.d.d.d.d.d.d.d.d.d.d.d.d.d.d.d.d.d.d.d.d.d.d.d.d.d.d.d.d.d.d.d.d.d.d.d.d.d.d.d.d.d.d.d.d.d.d.d.d.d.d.d.d.d.d.d.d.d.d.d.d.d.d.d.                          ",
"                        d.d.d.d.d.d.d.d.d.d.d.d.d.d.d.d.d.d.d.d.d.d.d.d.d.d.d.d.d.d.d.d.d.d.d.d.d.d.d.d.d.d.d.d.d.d.d.d.d.d.d.d.d.d.d.d.d.d.d.d.d.d.d.d.d.d.d.d.d.d.d.d.d.d.d.                          ",
"                        d.d.d.d.d.d.d.d.d.d.d.d.d.d.d.d.d.d.d.d.d.d.d.d.d.d.d.d.d.d.d.d.d.d.d.d.d.d.d.d.d.d.d.d.d.d.d.d.d.d.d.d.d.d.d.d.d.d.d.d.d.d.d.d.d.d.d.d.d.d.d.d.d.d.d.                          ",
"                        d.d.d.d.d.d.d.d.d.d.d.d.d.d.d.d.d.d.d.d.d.d.d.d.d.d.d.d.d.d.d.d.d.d.d.d.d.d.d.d.d.d.d.d.d.d.d.d.d.d.d.d.d.d.d.d.d.d.d.d.d.d.d.d.d.d.d.d.d.d.d.d.d.d.d.                          ",
"                        d.d.d.d.d.d.d.d.d.d.d.d.d.d.d.d.d.d.d.d.d.d.d.d.d.d.d.d.d.d.d.d.d.d.d.d.d.d.d.d.d.d.d.d.d.d.d.d.d.d.d.d.d.d.d.d.d.d.d.d.d.d.d.d.d.d.d.d.d.d.d.d.d.d.d.                          ",
"                        e.e.e.e.e.e.e.e.e.e.e.e.e.e.e.e.e.e.e.e.e.e.e.e.e.e.e.e.e.e.e.e.e.e.e.e.e.e.e.e.e.e.e.e.e.e.e.e.e.e.e.e.e.e.e.e.e.e.e.e.e.e.e.e.e.e.e.e.e.e.e.e.e.e.e.                          ",
"                        e.e.e.e.e.e.e.e.e.e.e.e.e.e.e.e.e.e.e.e.e.e.e.e.e.e.e.e.e.e.e.e.e.e.e.e.e.e.e.e.e.e.e.e.e.e.e.e.e.e.e.e.e.e.e.e.e.e.e.e.e.e.e.e.e.e.e.e.e.e.e.e.e.e.e.                          ",
"                                                                                                                                                                                                        "};
