/* XPM */
static char * sm_xpm[] = {
"27 16 149 2",
"  	c None",
". 	c #EFF62B",
"+ 	c #D7DD26",
"@ 	c #A7AC1E",
"# 	c #A8AD1E",
"$ 	c #797D15",
"% 	c #4A4C0D",
"& 	c #675313",
"* 	c #AE6E28",
"= 	c #C98A2E",
"- 	c #B49D23",
"; 	c #323409",
"> 	c #54410F",
", 	c #985D23",
"' 	c #C16E32",
") 	c #D77940",
"! 	c #D2763C",
"~ 	c #976A20",
"{ 	c #54430F",
"] 	c #976123",
"^ 	c #C17331",
"/ 	c #D67B34",
"( 	c #E4802F",
"_ 	c #E37D31",
": 	c #CD7335",
"< 	c #875E1C",
"[ 	c #616411",
"} 	c #C0C522",
"| 	c #54450F",
"1 	c #976523",
"2 	c #C17731",
"3 	c #D68234",
"4 	c #E48A2E",
"5 	c #EB8D23",
"6 	c #ED8B1E",
"7 	c #E7842B",
"8 	c #CD7735",
"9 	c #785119",
"0 	c #91951A",
"a 	c #564810",
"b 	c #986A23",
"c 	c #C17C31",
"d 	c #D68834",
"e 	c #E4932D",
"f 	c #EA9B23",
"g 	c #EE9D1D",
"h 	c #EE9A1D",
"i 	c #ED951D",
"j 	c #E78A2A",
"k 	c #CD7935",
"l 	c #785319",
"m 	c #B2772D",
"n 	c #E49C2E",
"o 	c #EEAE1C",
"p 	c #EEAA1D",
"q 	c #EDA71D",
"r 	c #EEA31D",
"s 	c #ED9E1D",
"t 	c #E6912A",
"u 	c #D07B3C",
"v 	c #7B561B",
"w 	c #B0762B",
"x 	c #E7A228",
"y 	c #EEAD1C",
"z 	c #EEA81D",
"A 	c #EEA51D",
"B 	c #EC9F1E",
"C 	c #E5902D",
"D 	c #D67E3E",
"E 	c #BC7430",
"F 	c #82591C",
"G 	c #3C380A",
"H 	c #3A3B0A",
"I 	c #686C12",
"J 	c #9FA41C",
"K 	c #D4DA26",
"L 	c #B2762D",
"M 	c #E8A127",
"N 	c #EEA71D",
"O 	c #EDA31C",
"P 	c #EE9F1C",
"Q 	c #EE9C1D",
"R 	c #ED981D",
"S 	c #E88E27",
"T 	c #DE8333",
"U 	c #CA7834",
"V 	c #B7792C",
"W 	c #B09922",
"X 	c #B0B51F",
"Y 	c #42440B",
"Z 	c #49420D",
"` 	c #C97F38",
" .	c #E7A128",
"..	c #EEAD1D",
"+.	c #EEA91C",
"@.	c #EEA11D",
"#.	c #EE9E1D",
"$.	c #ED9A1D",
"%.	c #E89027",
"&.	c #DE8433",
"*.	c #CA7933",
"=.	c #B7792B",
"-.	c #B09A22",
";.	c #DFE528",
">.	c #717414",
",.	c #8E6820",
"'.	c #D99133",
").	c #ECB21E",
"!.	c #EEB31C",
"~.	c #EEAF1C",
"{.	c #EDAB1D",
"].	c #EBA221",
"^.	c #E4942D",
"/.	c #D58434",
"(.	c #BC752F",
"_.	c #825A1B",
":.	c #49430D",
"<.	c #C68433",
"[.	c #E6AC28",
"}.	c #EEBB1B",
"|.	c #ECB71C",
"1.	c #E7A726",
"2.	c #DD9332",
"3.	c #C88033",
"4.	c #A26D26",
"5.	c #594910",
"6.	c #4C4F0D",
"7.	c #828617",
"8.	c #B8BE21",
"9.	c #E7EE29",
"0.	c #916F20",
"a.	c #D99833",
"b.	c #EAB922",
"c.	c #E5A62C",
"d.	c #D58F34",
"e.	c #BC7D2F",
"f.	c #82611B",
"g.	c #3C390A",
"h.	c #92961A",
"i.	c #807B16",
"j.	c #CA8738",
"k.	c #DA8C3E",
"l.	c #C88A33",
"m.	c #A27526",
"n.	c #594C10",
"o.	c #AC9B23",
"p.	c #C1902F",
"q.	c #876C1C",
"r.	c #43410B",
". . . . . . . . . . . . . . . . . . . . . + @ @ @ # + ",
". . . . . . . . . . . . . . . . . + @ $ % % & * = - + ",
". . . . . . . . . . . . . + @ $ % ; > , ' ) ! ~ @ # + ",
". . . . . . . . . + @ $ % ; { ] ^ / ( _ : < % [ } . . ",
". . . . . + @ $ % ; | 1 2 3 4 5 6 7 8 9 ; [ } . . . . ",
". . . . . 0 a b c d e f g h i j k l ; [ } . . . . . . ",
". . . . . 0 m n o p q r s t u v ; [ } . . . . . . . . ",
". . . . . 0 ; w x y z A B C D E F G H I J K . . . . . ",
". . . . . . 0 ; L M p N O P Q R S T U V W K . . . . . ",
". . . . . X Y Z `  ...+.A @.#.$.%.&.*.=.-.K . . . . . ",
". . . ;.>.; ,.'.).!.~.{.].^./.(._.G H I J K . . . . . ",
". . X Y :.<.[.}.|.1.2.3.4.5.; 6.7.8.9.. . . . . . . . ",
";.>.H 0.a.b.c.d.e.f.g.H I J K . . . . . . . . . . . . ",
"h.i.j.k.l.m.n.; 6.7.8.9.. . . . . . . . . . . . . . . ",
"o.p.q.r.H I J K . . . . . . . . . . . . . . . . . . . ",
"h.h.h.8.9.. . . . . . . . . . . . . . . . . . . . . . "};
