/* XPM */
static char * speedicon_xpm[] = {
"219 61 9 1",
" 	c None",
".	c #3E3E3E",
"+	c #393939",
"@	c #3D3D3D",
"#	c #3B3B3B",
"$	c #383838",
"%	c #373737",
"&	c #3C3C3C",
"*	c #3A3A3A",
"                                                                                                          ........                          +                                       +                                      ",
"@#$                                                                                                       ........                          .#                                      .#                                     ",
"...@+%                                                                                                    ........                          ..@%                                    ..@%                                   ",
"......&+                                                                                                  ........                          ....+                                   ...@$                                  ",
".........#$                                                                                               ........                          .....#                                  .....*                                 ",
"...........@*%                                                                                            ........                          ......@%                                ......&                                ",
"..............@+%                                                                                         ........                          ........+                               .......@$                              ",
".................&$                                                                                       ........                          .........&                              .........*                             ",
"....................#$                                                                                    ........                          ..........@%                            ..........&                            ",
"......................@*%                                                                                 ........                          ............+                           ...........@%                          ",
".........................@+                                                                               ........                          .............#                          .............+                         ",
"............................&$                                                                            ........                          ..............@%                        ..............#                        ",
"..............................@#$                                                                         ........                          ................+                       ...............@%                      ",
".................................@*%                                                                      ........                          .................#                      ................@$                     ",
"....................................&+                                                                    ........                          ..................@%                    ..................*                    ",
".......................................#$                                                                 ........                          ....................+                   ...................&                   ",
".........................................@*%                                                              ........                          .....................#                  ....................@$                 ",
"............................................@+%                                                         ............                        ......................@%                ......................*                ",
"...............................................&+                                                     ................                      ........................+               .......................&               ",
"..................................................#$                                                 ..................                     .........................#              ........................@%             ",
"....................................................@*%                                             ....................                    ..........................@%            ..........................+            ",
".......................................................@+                                          ......................                   ............................+           ...........................#           ",
"..........................................................&$                                      ........................                  .............................&          ............................@%         ",
".............................................................#$                                   ........................                  ..............................@%        .............................@$        ",
"...............................................................@*%                               ..........................                 ................................+       ...............................*       ",
"..................................................................&+                             ..........................                 .................................#      ................................&      ",
".....................................................................#$                         ............................                ..................................@%    .................................@$    ",
".......................................................................@*%                      ............................                ....................................+   ...................................*   ",
"..........................................................................@+%                   ............................                .....................................#  ....................................&  ",
".............................................................................&+                 ............................                ......................................@%.....................................@%",
".............................................................................&+                 ............................                ......................................@%.....................................@%",
"..........................................................................@*%                   ............................                .....................................#  ....................................&  ",
"........................................................................#$                      ............................                ....................................+   ...................................*   ",
".....................................................................@+                         ............................                ..................................@%    .................................@$    ",
"..................................................................@*%                            ..........................                 .................................#      ................................&      ",
"................................................................&$                               ..........................                 ................................+       ...............................*       ",
".............................................................@+                                   ........................                  ..............................@%        .............................@$        ",
"...........................................................*%                                     ........................                  .............................&          ............................@%         ",
"........................................................&$                                         ......................                   ............................+           ...........................#           ",
".....................................................@+%                                            ....................                    ..........................@%            ..........................+            ",
"...................................................#$                                                ..................                     .........................#              ........................@%             ",
"................................................&+                                                    ................                      ........................+               .......................&               ",
".............................................@*%                                                        ............                        ......................@%                ......................*                ",
"...........................................#$                                                             ........                          .....................#                  ....................@$                 ",
"........................................&+                                                                ........                          ....................+                   ...................&                   ",
".....................................@*%                                                                  ........                          ..................@%                    ..................*                    ",
"...................................&$                                                                     ........                          .................#                      ................@$                     ",
"................................@+                                                                        ........                          ................+                       ...............@%                      ",
".............................@*%                                                                          ........                          ..............@%                        ..............#                        ",
"...........................&$                                                                             ........                          .............#                          .............+                         ",
"........................@+%                                                                               ........                          ............+                           ...........@%                          ",
"......................#$                                                                                  ........                          ..........@%                            ..........&                            ",
"...................&+                                                                                     ........                          .........&                              .........*                             ",
"................@*%                                                                                       ........                          ........+                               .......@$                              ",
"..............#$                                                                                          ........                          ......@%                                ......&                                ",
"...........&+                                                                                             ........                          .....#                                  .....*                                 ",
"........@*%                                                                                               ........                          ....+                                   ...@$                                  ",
"......#$                                                                                                  ........                          ..@%                                    ..@%                                   ",
"...@+                                                                                                     ........                          .#                                      .#                                     ",
"@*%                                                                                                       ........                          +                                       +                                      ",
"                                                                                                                                                                                                                           "};
