/* XPM */
static char * volume2_xpm[] = {
"20 20 2 1",
" 	c None",
".	c #3D3D3D",
"                    ",
"                ..  ",
"               ...  ",
"              .. .  ",
"             ..  .  ",
"            ..   .  ",
"           ..    .  ",
"          ...    .  ",
"         ....    .  ",
"        .....    .  ",
"       ......    .  ",
"      .......    .  ",
"     ........    .  ",
"    .........    .  ",
"   ..........    .  ",
"  ...........    .  ",
" ............    .  ",
"..................  ",
"                    ",
"                    "};
